<svg width="27" height="18" viewBox="0 0 27 18" fill="none" xmlns="http://www.w3.org/2000/svg">
<path fill-rule="evenodd" clip-rule="evenodd" d="M0.861714 0.0994038C0.772061 0.154056 0.654056 0.27206 0.599404 0.361714C0.50125 0.52262 0.5 0.630975 0.5 9C0.5 17.369 0.50125 17.4774 0.599404 17.6383C0.654056 17.7279 0.772061 17.8459 0.861714 17.9006C1.02127 17.9979 1.12287 18 5.74985 18C10.3768 18 10.4784 17.9979 10.638 17.9006C10.7276 17.8459 10.8457 17.7279 10.9003 17.6383C10.9951 17.4829 10.9997 17.3828 10.9999 15.4878L11.0001 13.5002L12.2626 13.5C13.4343 13.4998 13.5369 13.4926 13.6881 13.4004C13.7778 13.3458 13.8958 13.2278 13.9504 13.1381C14.0471 12.9796 14.0498 12.8794 14.05 9.48752L14.0502 5.99988H14.8252H15.6002L15.6004 11.7376C15.6006 17.3748 15.6023 17.4782 15.7 17.6383C15.7546 17.7279 15.8726 17.8459 15.9623 17.9006C16.1219 17.9979 16.2235 18 20.8504 18C25.4774 18 25.579 17.9979 25.7386 17.9006C25.8282 17.8459 25.9462 17.7279 26.0009 17.6383C26.099 17.4774 26.1003 17.369 26.1003 9C26.1003 0.630975 26.099 0.52262 26.0009 0.361714C25.9462 0.27206 25.8282 0.154056 25.7386 0.0994038C25.579 0.00210003 25.4774 0 20.8504 0C16.2235 0 16.1219 0.00210003 15.9623 0.0994038C15.8726 0.154056 15.7546 0.27206 15.7 0.361714C15.6052 0.51707 15.6006 0.617174 15.6004 2.51225L15.6002 4.49982L14.3377 4.50002C13.166 4.50017 13.0634 4.50737 12.9122 4.59958C12.8225 4.65423 12.7045 4.77223 12.6499 4.86189C12.5532 5.02039 12.5505 5.12055 12.5503 8.51248L12.5501 12.0001H11.7751H11.0001L10.9999 6.26239C10.9997 0.625224 10.998 0.52182 10.9003 0.361714C10.8457 0.27206 10.7276 0.154056 10.638 0.0994038C10.4784 0.00210003 10.3768 0 5.74985 0C1.12287 0 1.02127 0.00210003 0.861714 0.0994038ZM9.5 6.74991V12.0001H8.74997H7.99994L7.99974 11.5126C7.99954 10.9604 7.92629 10.7756 7.63788 10.5998C7.48357 10.5057 7.38317 10.5004 5.74985 10.5004C4.11654 10.5004 4.01614 10.5057 3.86183 10.5998C3.77218 10.6545 3.65417 10.7725 3.59952 10.8621C3.50542 11.0164 3.50012 11.1168 3.50012 12.7501C3.50012 14.3835 3.50542 14.4839 3.59952 14.6382C3.65417 14.7278 3.77218 14.8458 3.86183 14.9005C4.01614 14.9946 4.11654 14.9999 5.74985 14.9999C7.38317 14.9999 7.48357 14.9946 7.63788 14.9005C7.92629 14.7247 7.99954 14.5399 7.99974 13.9877L7.99994 13.5002H8.74997H9.5V15.0002V16.5003H5.74985H1.99971V9V1.49971H5.74985H9.5V6.74991ZM24.6006 9V16.5003H20.8504H17.1003V11.2501V5.99988H17.8503H18.6004L18.6006 6.4874C18.6008 7.03957 18.674 7.22438 18.9624 7.40019C19.1167 7.49429 19.2171 7.49959 20.8504 7.49959C22.4838 7.49959 22.5842 7.49429 22.7385 7.40019C22.8281 7.34554 22.9461 7.22753 23.0008 7.13788C23.0949 6.98357 23.1002 6.88317 23.1002 5.24985C23.1002 3.61654 23.0949 3.51614 23.0008 3.36183C22.9461 3.27218 22.8281 3.15417 22.7385 3.09952C22.5842 3.00542 22.4838 3.00012 20.8504 3.00012C19.2171 3.00012 19.1167 3.00542 18.9624 3.09952C18.674 3.27533 18.6008 3.46013 18.6006 4.01231L18.6004 4.49982H17.8503H17.1003V2.99977V1.49971H20.8504H24.6006V9ZM3.86183 4.59958C3.63392 4.73848 3.50012 4.97904 3.50012 5.24985C3.50012 5.52066 3.63392 5.76122 3.86183 5.90013C4.01614 5.99423 4.11654 5.99953 5.74985 5.99953C7.38317 5.99953 7.48357 5.99423 7.63788 5.90013C8.12085 5.60567 8.12085 4.89404 7.63788 4.59958C7.48357 4.50547 7.38317 4.50017 5.74985 4.50017C4.11654 4.50017 4.01614 4.50547 3.86183 4.59958ZM21.6005 5.24985V5.99988H20.8504H20.1004V5.24985V4.49982H20.8504H21.6005V5.24985ZM3.86183 7.59969C3.63392 7.7386 3.50012 7.97916 3.50012 8.24997C3.50012 8.52078 3.63392 8.76134 3.86183 8.90025C4.01614 8.99435 4.11654 8.99965 5.74985 8.99965C7.38317 8.99965 7.48357 8.99435 7.63788 8.90025C8.12085 8.60578 8.12085 7.89416 7.63788 7.59969C7.48357 7.50559 7.38317 7.50029 5.74985 7.50029C4.11654 7.50029 4.01614 7.50559 3.86183 7.59969ZM18.9624 9.09975C18.4794 9.39421 18.4794 10.1058 18.9624 10.4003C19.1167 10.4944 19.2171 10.4997 20.8504 10.4997C22.4838 10.4997 22.5842 10.4944 22.7385 10.4003C23.2214 10.1058 23.2214 9.39421 22.7385 9.09975C22.5842 9.00565 22.4838 9.00035 20.8504 9.00035C19.2171 9.00035 19.1167 9.00565 18.9624 9.09975ZM6.49988 12.7501V13.5002H5.74985H4.99982V12.7501V12.0001H5.74985H6.49988V12.7501ZM18.9624 12.0999C18.4794 12.3943 18.4794 13.106 18.9624 13.4004C19.1167 13.4945 19.2171 13.4998 20.8504 13.4998C22.4838 13.4998 22.5842 13.4945 22.7385 13.4004C23.2214 13.106 23.2214 12.3943 22.7385 12.0999C22.5842 12.0058 22.4838 12.0005 20.8504 12.0005C19.2171 12.0005 19.1167 12.0058 18.9624 12.0999Z" fill="#008E41"/>
</svg>
