<svg width="511" height="511" viewBox="0 0 511 511" fill="none" xmlns="http://www.w3.org/2000/svg">
<path fill-rule="evenodd" clip-rule="evenodd" d="M237.948 0.102767C236.985 0.209848 233.607 0.536595 230.442 0.827815C185.964 4.92241 142.835 21.2708 105.164 48.3162C84.5709 63.1009 62.9756 84.6892 48.2727 105.19C24.5195 138.308 8.86778 175.839 2.80648 214.213C0.341328 229.817 0.00403388 234.784 3.03847e-05 255.494C-0.00347268 276.554 0.291785 280.687 3.04119 297.998C9.67048 339.74 29.4983 383.672 56.6055 416.68C80.1376 445.335 107.662 467.491 140.113 483.902C168.197 498.103 195.311 506.149 228.19 510.036C239.094 511.326 272.003 511.32 282.738 510.027C316.03 506.017 343.004 498.021 370.815 483.92C396.002 471.148 416.359 456.384 436.368 436.377C456.412 416.335 471.121 396.059 483.916 370.831C498.003 343.057 506.021 316.015 510.027 282.764C511.32 272.031 511.326 239.126 510.036 228.223C506.148 195.348 498.102 168.237 483.898 140.157C471.304 115.257 456.549 94.8544 436.872 75.1275C416.943 55.1479 397.24 40.689 372.53 27.9093C350.078 16.298 322.946 7.1596 299.502 3.31269C283.539 0.693714 277.034 0.181327 257.966 0.0412207C247.92 -0.0323349 238.912 -0.0048141 237.948 0.102767ZM212.815 145.771C221.451 147.757 229.602 151.108 235.446 155.075C238.771 157.332 244.751 163.238 247.269 166.751C254.546 176.905 258.482 192.954 257.011 206.476C256.245 213.515 255.307 216.908 252.587 222.469C248.424 230.982 240.107 237.823 230.93 240.283C229.148 240.761 227.511 241.304 227.293 241.489C227.075 241.674 228.802 242.093 231.131 242.418C243.277 244.117 252.2 250.538 257.897 261.676C265.883 277.289 266.998 301.802 260.527 319.477C253.647 338.267 237.902 350.694 214.372 355.906L208.172 357.279L146.994 357.442L85.8155 357.605V251.341C85.8155 192.896 85.9732 144.919 86.1663 144.727C86.359 144.534 113.889 144.45 147.345 144.54C207.362 144.702 208.234 144.718 212.815 145.771ZM397.087 169.929V182.939H353.299H309.511V169.929V156.919H353.299H397.087V169.929ZM134.858 205.956V230.009L167.262 229.867L199.665 229.724L202.115 228.509C206.846 226.162 209.864 221.853 211.205 215.529C212.14 211.117 212.143 199.061 211.209 195.553C209.725 189.98 206.677 185.923 202.167 183.521L199.665 182.188L167.262 182.046L134.858 181.904V205.956ZM364.809 199.214C373.549 199.777 385.546 202.912 392.669 206.494C402.519 211.449 412.017 220.333 417.711 229.919C424.684 241.658 428.354 254.66 429.641 272.179C429.907 275.799 429.977 281.519 429.798 284.889L429.47 291.016L374.119 291.144L318.769 291.271L318.948 295.274C319.4 305.393 324.179 315.563 330.861 320.626C337.369 325.556 344.717 327.99 354.349 328.403C374.368 329.264 389.123 321.023 390.442 308.246L390.722 305.532H409.418H428.115V307.421C428.115 310.616 427.113 317.587 426.056 321.748C421.926 338.002 408.96 350.742 390.156 357.024C369.954 363.771 341.754 363.69 321.191 356.824C293.738 347.659 276.176 323.022 273.509 289.933C272.086 272.287 277.182 249.746 285.918 235.041C299.127 212.81 319.699 200.804 347.715 198.977C353.65 198.59 355.515 198.616 364.809 199.214ZM346.609 230.746C339.879 232.206 332.312 236.847 327.857 242.248C324.711 246.061 321.007 252.952 319.566 257.673C317.73 263.689 313.38 263.025 353.665 262.878L388.811 262.749L388.662 260.498C388.353 255.839 387.035 251.105 384.758 246.487C380.632 238.115 373.973 232.768 365.211 230.788C360.785 229.788 351.123 229.766 346.609 230.746ZM134.858 291.271V320.043H166.306C195.782 320.043 197.991 319.982 201.546 319.073C206.49 317.808 209.02 316.478 212.202 313.468C217.205 308.738 219.53 301.819 219.494 291.771C219.439 276.354 213.002 266.353 201.145 263.265C198.654 262.616 193.356 262.499 166.531 262.499H134.858V291.271Z" fill="white"/>
</svg>
