<svg width="1440" height="789" viewBox="0 0 1440 789" fill="none" xmlns="http://www.w3.org/2000/svg">
<path d="M1590.82 1.16919C1563.76 11.9908 1537.94 28.9613 1513.12 43.8169C1408.62 106.367 1308.27 179.706 1196.14 228.346C1044.88 293.955 879.227 314.413 717.164 335.007C612.995 348.244 508.347 358.656 404.526 374.566C373.741 379.284 343.603 386.34 313.555 394.43C257.42 409.543 201.974 430.115 150.142 456.523C126.874 468.378 105.25 482.973 82.7065 496.083C61.7026 508.298 40.0856 519.331 18.8601 531.136C0.655571 541.261 -14.5296 554.62 -31.6328 566.022" stroke="#E2E2E2" stroke-width="2" stroke-linecap="round"/>
<path d="M1568.68 289C1558.9 312.65 1548.9 332.256 1531.09 351.332C1481.07 404.898 1429.87 427.628 1358.6 440.709C1221.8 465.817 1071.7 481.455 947.999 549.873C920.838 564.896 888.655 588.853 882.698 622.759C878.003 649.485 903.275 672.105 922.769 683.772C1016.53 739.887 1133.43 703.725 1232.62 688.719C1359.47 669.527 1502.02 700.492 1598.37 787.659" stroke="#E2E2E2" stroke-width="2" stroke-linecap="round"/>
<path d="M-54.9268 406.908C-10.7666 400.229 32.6396 384.983 70.3977 360.736C138.686 316.885 204.83 263.169 265.31 209.357C294.588 183.308 321.751 151.687 299.28 112.066C283.145 83.6185 252.096 70.9297 221.117 67.7079C172.812 62.6842 123.103 67.4329 75.5096 76.1178C49.0864 80.9396 23.7522 86.9514 1.63416 102.667C-6.24521 108.265 -34.1493 120.45 -34.1493 130.865" stroke="#E2E2E2" stroke-width="2" stroke-linecap="round"/>
</svg>
