<svg width="25" height="24" viewBox="0 0 25 24" fill="none" xmlns="http://www.w3.org/2000/svg">
<path fill-rule="evenodd" clip-rule="evenodd" d="M9.72358 0.00646963C9.63861 0.0119794 9.54504 0.021686 9.51563 0.0280516C9.48622 0.0344172 9.43809 0.0429398 9.40868 0.0469959C9.34215 0.056175 9.12577 0.106209 9.04625 0.130815C8.8584 0.188926 8.5649 0.317691 8.42834 0.401873C8.39566 0.422013 8.35321 0.447241 8.33401 0.457921C8.20874 0.527614 7.96073 0.73953 7.83614 0.883312C7.54582 1.2184 7.3757 1.60178 7.32833 2.02775C7.31077 2.18567 7.32086 3.65811 7.34293 4.15821C7.35082 4.33702 7.35413 4.48643 7.35028 4.49023C7.33915 4.50123 6.05246 4.51839 4.32873 4.53054C3.43748 4.53681 2.70763 4.54664 2.67106 4.55287C2.63511 4.55899 2.56566 4.56983 2.51672 4.57696C2.28141 4.61126 1.99778 4.69881 1.78578 4.8026C1.18316 5.09762 0.780508 5.57948 0.607326 6.21285C0.54443 6.4429 0.544026 6.45145 0.53263 7.80717C0.518347 9.50489 0.492038 21.6575 0.502329 21.7985C0.546236 22.4 0.888453 23.0051 1.41147 23.4062C1.7875 23.6946 2.21191 23.872 2.68294 23.9379C2.77312 23.9505 3.14842 23.9539 4.54856 23.9549C5.51256 23.9556 6.76918 23.961 7.34105 23.967C8.97378 23.9842 14.1485 24.0062 14.7144 23.9984C15.2115 23.9916 15.2745 23.9877 15.4987 23.951C15.88 23.8886 16.2922 23.7229 16.6216 23.4997C17.2073 23.1028 17.5779 22.5438 17.6873 21.8923C17.7049 21.7873 17.7077 21.6924 17.7066 21.2475C17.7052 20.6751 17.6854 19.9731 17.6618 19.6532C17.6534 19.5404 17.6476 19.4469 17.6488 19.4454C17.65 19.4439 18.5945 19.4372 19.7476 19.4305C20.9007 19.4237 21.9324 19.4131 22.0402 19.4069C22.719 19.3678 23.3512 19.1081 23.8049 18.6819C23.9583 18.5379 24.1169 18.3472 24.1903 18.2186C24.2699 18.0791 24.2894 18.0409 24.3325 17.9407C24.4175 17.7428 24.4687 17.5337 24.4886 17.3028C24.4941 17.2383 24.499 14.3379 24.4993 10.8574L24.5 4.52926L24.4754 4.40977C24.4029 4.05753 24.2609 3.80322 23.882 3.34659C23.4753 2.85652 22.8719 2.28734 22.0105 1.58137C21.2958 0.995594 20.7851 0.622992 20.4176 0.419258C20.1347 0.262429 19.8313 0.150123 19.5686 0.105071C19.513 0.0955524 19.4435 0.0821179 19.4141 0.0752248C19.3795 0.0671008 18.9187 0.0590471 18.107 0.0523533C17.4175 0.0466794 16.2544 0.0364687 15.5224 0.0296811C14.7905 0.0228935 13.5472 0.014664 12.7597 0.011405C11.9721 0.00814601 11.0016 0.0034451 10.6029 0.000959834C10.2042 -0.00151371 9.80854 0.000959834 9.72358 0.00646963ZM18.7349 2.21414C18.7784 2.24126 19.142 2.54721 19.4386 2.80638C19.4945 2.85527 19.6174 2.96119 19.7117 3.04179C19.9548 3.24963 20.3489 3.588 20.4947 3.71411C20.5629 3.7731 20.6621 3.85829 20.7151 3.90343C21.1549 4.2776 21.913 4.93256 21.9524 4.97235C21.9792 4.99945 22.0082 5.03851 22.0169 5.05917C22.0317 5.09443 22.0308 5.09834 22.0012 5.12342C21.9812 5.14035 21.9464 5.15301 21.906 5.158C21.871 5.16231 21.1235 5.16131 20.245 5.15577L18.6477 5.14567L18.6061 5.11979C18.5832 5.10556 18.5511 5.07438 18.5348 5.05051L18.5051 5.0071V3.6581C18.5051 2.20034 18.503 2.24758 18.5683 2.1968C18.6087 2.16536 18.6661 2.17133 18.7349 2.21414ZM13.3835 2.43271C15.9616 2.44612 15.8203 2.44167 15.8883 2.51164C15.9576 2.58305 15.9531 2.45562 15.9618 4.58922C15.9704 6.6807 15.9701 6.67148 16.0282 6.83417C16.1371 7.13936 16.3865 7.35014 16.7421 7.43756C16.9421 7.48675 16.9766 7.48732 19.4319 7.48305L21.7847 7.47893L21.8294 7.50633C21.854 7.52139 21.8879 7.55694 21.9047 7.58532L21.9354 7.63691L21.9225 8.30819C21.9155 8.67739 21.9043 9.23269 21.8976 9.54217C21.891 9.85166 21.8803 10.3555 21.8739 10.6617C21.8674 10.968 21.8567 11.4744 21.85 11.7871C21.8001 14.1364 21.795 14.3913 21.767 15.896C21.7599 16.2764 21.7497 16.6578 21.7443 16.7435C21.7351 16.8918 21.7329 16.9014 21.6996 16.942C21.6804 16.9654 21.6461 16.9941 21.6234 17.0057C21.5839 17.0259 21.3919 17.0274 17.3521 17.0384C15.0256 17.0447 12.5068 17.0535 11.7547 17.0578C10.3106 17.0663 10.3203 17.0665 10.2141 17.0139C10.1566 16.9854 10.0931 16.9221 10.0594 16.8599L10.0325 16.8104L10.0355 15.4564C10.039 13.9195 10.0566 10.9219 10.0738 8.95016C10.0802 8.21836 10.0917 6.48805 10.0993 5.10503L10.1132 2.59046L10.1409 2.5358C10.1664 2.48544 10.2083 2.44528 10.2524 2.42894C10.2799 2.41874 10.8252 2.41939 13.3835 2.43271ZM7.34836 6.88179C7.39808 6.91841 7.42589 6.96102 7.43696 7.01754C7.44246 7.04564 7.44719 9.37478 7.44747 12.1934C7.44804 17.7921 7.44387 17.4492 7.51467 17.7248C7.69694 18.4345 8.17515 18.9708 8.89771 19.276C9.12545 19.3722 9.33394 19.4277 9.63445 19.4724C9.94787 19.5189 10.6565 19.5305 12.1596 19.5135C12.8262 19.506 13.516 19.495 13.6925 19.489C13.8689 19.4831 14.1818 19.475 14.3876 19.471C14.8092 19.4628 14.806 19.4623 14.8801 19.5525L14.9157 19.5959L14.9243 19.8678C14.9547 20.8286 14.958 21.0099 14.9462 21.0717C14.9112 21.2549 14.7581 21.4159 14.5782 21.4584C14.5298 21.4699 13.4815 21.4701 9.52392 21.4593C3.16288 21.442 3.44026 21.4437 3.36621 21.4212C3.24341 21.3839 3.13877 21.3019 3.06985 21.1889C3.0001 21.0746 3 21.0731 3.00857 20.2527C3.02215 18.9508 3.0388 17.6196 3.05103 16.8573C3.05755 16.4511 3.06833 15.5675 3.07501 14.8937C3.08167 14.2199 3.08974 13.5078 3.09294 13.3111C3.10374 12.6459 3.12148 11.2459 3.12837 10.5152C3.13215 10.1154 3.14021 9.52459 3.1463 9.20221C3.15239 8.87982 3.16079 8.32591 3.16495 7.97129C3.16912 7.61668 3.17739 7.30054 3.18331 7.26877C3.21023 7.12449 3.32122 6.98413 3.46792 6.90885L3.54445 6.86958L3.77617 6.86285C3.90362 6.85915 4.75212 6.85645 5.66172 6.85686C7.31295 6.85761 7.3156 6.85765 7.34836 6.88179Z" fill="#B9EAFF"/>
</svg>
