<svg width="422" height="512" viewBox="0 0 422 512" fill="none" xmlns="http://www.w3.org/2000/svg">
<path fill-rule="evenodd" clip-rule="evenodd" d="M99.5121 1.55252C77.8761 6.78252 56.637 26.3585 50.545 46.6875L49.87 48.9375H68.5471H87.2251L92.6181 44.0085C95.8091 41.0925 100.272 38.2325 103.546 37.0085C109.035 34.9545 110.103 34.9375 234.505 34.9375H359.93L365.71 37.1005C373.605 40.0545 381.888 48.3375 384.842 56.2325L387.005 62.0125V219.438C387.005 375.788 386.991 376.9 384.951 382.352C383.822 385.371 380.887 390.078 378.429 392.811C374.335 397.365 365.463 402.938 362.309 402.938C361.245 402.938 361.005 383.595 361.005 298.043C361.005 194.398 360.98 193.067 358.909 186.293C354.807 172.876 353.191 170.937 309.605 127.137C287 104.421 266.055 84.2005 263.061 82.2045C260.067 80.2075 253.992 77.3115 249.561 75.7685L241.505 72.9645L150.415 72.9505C63.6451 72.9385 58.967 73.0295 51.771 74.8695C32.116 79.8965 15.752 93.2705 7.02705 111.438C-0.439953 126.988 0.00504709 115.508 0.00504709 292.438C0.00504709 468.017 -0.366951 457.655 6.46705 472.438C15.062 491.032 31.718 504.877 51.614 509.966C59.08 511.875 63.1721 511.938 180.505 511.938C296.987 511.938 301.978 511.863 309.239 510.006C338.416 502.544 359.248 477.747 360.764 448.673C361.263 439.115 361.329 438.897 363.889 438.367C372.523 436.579 376.386 435.283 384.005 431.62C390.996 428.258 394.107 425.926 401.531 418.485C411.81 408.182 416.677 399.767 420.012 386.528C421.961 378.793 422.005 375.114 422.005 219.725C422.005 43.4505 422.391 53.9825 415.394 39.2355C406.713 20.9425 389.671 6.83952 370.239 1.86952C362.957 0.00751817 358.049 -0.0594818 234.095 0.0205182C125.446 0.0915182 104.576 0.328518 99.5121 1.55252ZM235.022 128.688C235.034 142.838 235.496 151.591 236.474 156.208C240.104 173.338 253.039 187.584 270.005 193.138C275.729 195.011 279.454 195.318 301.209 195.702L325.913 196.139L326.51 200.289C326.838 202.571 326.972 259.788 326.806 327.438L326.505 450.438L323.704 456.438C320.322 463.683 314.259 470.171 307.505 473.772L302.505 476.438L182.335 476.704L62.164 476.969L56.342 474.791C48.403 471.821 40.129 463.558 37.168 455.643L35.005 449.863V292.438V135.013L37.168 129.233C40.049 121.532 48.406 113.07 56.016 110.149C61.442 108.066 62.5041 108.042 148.255 107.99L235.005 107.938L235.022 128.688ZM83.181 200.076C81.353 200.603 77.9281 202.962 75.5701 205.32C67.2761 213.614 67.2771 225.262 75.5711 233.557C78.0061 235.991 81.4381 238.242 83.6541 238.857C86.1741 239.557 106.704 239.929 143.059 239.932L198.612 239.938L203.696 237.405C206.872 235.822 209.853 233.322 211.642 230.74C214.142 227.132 214.505 225.701 214.505 219.438C214.505 213.175 214.142 211.744 211.642 208.136C209.853 205.554 206.872 203.054 203.696 201.471L198.612 198.938L142.559 199.028C110.124 199.08 85.104 199.522 83.181 200.076ZM79.912 289.266C68.18 295.462 65.924 311.584 75.455 321.115C81.659 327.32 75.44 326.993 181.851 326.703L278.833 326.438L283.08 323.438C288.866 319.351 291.509 314.007 291.49 306.436C291.47 298.962 288.646 293.934 282.153 289.817L277.613 286.938H180.967H84.3201L79.912 289.266ZM81.4341 375.831C72.6651 379.814 67.7511 390.071 70.1141 399.458C71.6421 405.523 77.732 411.948 83.621 413.708C88.82 415.261 271.471 415.493 277.005 413.953C281.897 412.592 287.922 407.331 290.112 402.509C294.688 392.434 290.023 380.704 279.505 375.834C275.7 374.072 270.867 373.982 180.505 373.982C90.2281 373.982 85.3031 374.074 81.4341 375.831Z" fill="black"/>
</svg>
