<svg width="20" height="18" viewBox="0 0 20 18" fill="none" xmlns="http://www.w3.org/2000/svg">
<path fill-rule="evenodd" clip-rule="evenodd" d="M9.4837 0.0968555C8.93733 0.283135 8.48189 0.66989 8.24947 1.14494L8.13564 1.37761L6.26744 1.39402C4.50146 1.40956 4.38291 1.41557 4.10146 1.50365C2.99564 1.84972 2.2375 2.5252 1.90471 3.46079C1.82023 3.69832 1.80478 3.82639 1.80551 4.28312C1.80629 4.78306 1.81629 4.84897 1.93713 5.15116C2.26727 5.97661 2.92843 6.60348 3.80365 6.92095C4.42343 7.1457 4.43689 7.14626 8.82229 7.13164L12.8991 7.118L13.0509 6.9708C13.2832 6.7457 13.3251 6.42724 13.1581 6.157C12.9651 5.84464 13.2577 5.86533 8.68401 5.84092C4.22148 5.81712 4.5044 5.83283 3.96643 5.57886C3.69406 5.45027 3.34319 5.10329 3.21352 4.83435C2.96963 4.3284 3.06394 3.79215 3.47389 3.35393C3.76993 3.03747 4.03741 2.883 4.48947 2.76735C4.79395 2.68949 4.97192 2.68174 6.4554 2.68174H8.08656L8.2419 2.99553C8.59654 3.71178 9.29158 4.15034 10.0753 4.15237C10.8948 4.1545 11.6093 3.71078 11.9587 2.98267L12.1032 2.68174H14.0882C16.0298 2.68174 16.0768 2.67975 16.2363 2.59008C16.4264 2.48322 16.5827 2.23171 16.5827 2.03254C16.5827 1.82834 16.4155 1.56121 16.2277 1.46543C16.0766 1.3883 15.9448 1.38333 14.0633 1.38315L12.0599 1.38302L11.9166 1.10599C11.4679 0.238123 10.3858 -0.210739 9.4837 0.0968555ZM15.8151 4.91251C15.4394 5.0137 15.1479 5.18842 14.8501 5.491C14.4391 5.90853 14.2471 6.36431 14.2461 6.92497C14.244 8.0797 15.1655 9.00071 16.323 9.00071C16.8942 9.00071 17.3941 8.79525 17.7925 8.39681L17.9689 8.22049L18.0961 8.42122C18.247 8.65909 18.3328 9.02728 18.2954 9.27666C18.2046 9.8819 17.6352 10.4295 16.898 10.6205C16.6656 10.6808 15.9996 10.6886 11.1507 10.6886H5.66627L5.39282 10.3933C4.97049 9.93717 4.42775 9.6932 3.83533 9.6932C2.91878 9.6932 2.05273 10.3974 1.84295 11.3131C1.77478 11.6107 1.76574 11.6244 1.51393 11.8089C1.01305 12.1758 0.59751 12.8023 0.455419 13.4048C0.352325 13.8419 0.393269 14.427 0.556393 14.847C0.937565 15.8288 1.81356 16.5307 2.95799 16.7714C3.20317 16.823 3.77443 16.8345 6.08587 16.8345H8.91383L9.02415 17.0228C9.15529 17.2465 9.59948 17.6685 9.8248 17.7835C10.3121 18.0321 11.0265 18.0712 11.5294 17.8768C12.0473 17.6765 12.5348 17.1884 12.7349 16.6697C12.8653 16.3317 12.8934 15.7749 12.7989 15.4046C12.5692 14.5045 11.7204 13.8503 10.7802 13.8486C9.89344 13.847 9.04968 14.4845 8.79022 15.3521L8.73521 15.5361H6.05411C3.13769 15.5361 3.14206 15.5364 2.61101 15.2867C2.31138 15.1459 1.96301 14.8081 1.8275 14.527C1.61088 14.0776 1.68554 13.5102 2.01079 13.1339L2.1528 12.9696L2.29307 13.1468C2.87138 13.877 4.12942 14.069 4.94487 13.5516C5.38633 13.2715 5.75573 12.7668 5.87601 12.2793L5.94768 11.989L11.4708 11.9767L16.9939 11.9644L17.3111 11.8664C18.2323 11.5819 18.9494 11.0127 19.3129 10.2775C19.8549 9.18145 19.6237 8.02321 18.6891 7.15193C18.4648 6.94285 18.4005 6.85568 18.4005 6.76068C18.4005 6.55367 18.2739 6.13865 18.1384 5.90199C17.9801 5.62517 17.5282 5.19513 17.2586 5.0646C16.8085 4.84672 16.2701 4.78998 15.8151 4.91251Z" fill="white"/>
</svg>
