<svg width="22" height="14" viewBox="0 0 22 14" fill="none" xmlns="http://www.w3.org/2000/svg">
<path fill-rule="evenodd" clip-rule="evenodd" d="M0.00193603 3.28991V6.07821H2.60822H5.21449L5.06697 6.2337C4.82861 6.48486 4.03228 6.99505 3.44806 7.27094C2.56415 7.68838 1.20839 8.06297 0.27298 8.14823L0.0406566 8.16943L0.0202896 10.8348L0 13.5L0.446215 13.4521C4.69579 12.9954 8.20573 11.3874 10.5784 8.81023C10.9029 8.4578 11.205 8.15681 11.2499 8.14133C11.2947 8.12585 11.139 8.45604 10.9038 8.87509C10.6686 9.29415 10.066 10.3964 9.56467 11.3246C9.06339 12.2528 8.58566 13.1195 8.50303 13.2507L8.35295 13.4892L11.6698 13.4887L14.9868 13.4881L17.1939 9.39981C18.4077 7.15119 19.9858 4.22884 20.7005 2.90571L22 0.5L18.7322 0.519151L15.4644 0.538302L14.24 2.77569C13.5665 4.00628 12.9799 5.02438 12.9364 5.03818C12.8835 5.05483 12.8572 4.30383 12.8572 2.78237V0.501614H10.6258H8.39453L7.20891 2.77628C6.55686 4.02734 5.99278 5.05094 5.95537 5.05094C5.91789 5.05094 5.88746 4.03131 5.88746 2.77628V0.501614H2.9447H0.00193603V3.28991Z" fill="#146EF5"/>
</svg>
