<svg width="21" height="18" viewBox="0 0 21 18" fill="none" xmlns="http://www.w3.org/2000/svg">
<path fill-rule="evenodd" clip-rule="evenodd" d="M5.16807 0.0553884C2.92545 0.400772 1.11123 2.04826 0.523918 4.27265C0.330675 5.00458 0.30746 6.14956 0.471584 6.85579C0.683932 7.76956 1.07181 8.56742 1.63956 9.25831C1.80964 9.46527 3.83285 11.5168 6.13556 13.8173C9.79752 17.4757 10.3439 18 10.4941 18C10.6445 18 11.2011 17.4655 14.9402 13.7305C17.291 11.3822 19.3431 9.2916 19.5005 9.08463C20.3972 7.9056 20.8116 6.24439 20.5698 4.79819C20.2548 2.91456 19.1301 1.39206 17.4492 0.574043C15.2022 -0.519421 12.6012 -0.0253128 10.7884 1.83945L10.5037 2.13232L10.0021 1.65494C9.19278 0.884807 8.38183 0.422945 7.39692 0.171404C6.8349 0.0278317 5.72279 -0.0300602 5.16807 0.0553884Z" fill="#FF596D"/>
</svg>
