<svg width="16" height="18" viewBox="0 0 16 18" fill="none" xmlns="http://www.w3.org/2000/svg">
<path fill-rule="evenodd" clip-rule="evenodd" d="M7.64283 0.0250338C6.09811 0.184478 4.70876 0.697964 3.5781 1.52732C2.85621 2.05681 2.23651 2.77088 1.80852 3.56636C1.32841 4.45869 1.13637 5.4842 1.26157 6.48698C1.30779 6.85717 1.35363 7.07206 1.48104 7.51624C1.56711 7.81626 1.5736 7.8547 1.56209 7.996C1.53318 8.3501 1.41169 8.68334 1.10064 9.26162C0.639354 10.1192 0.558346 10.3236 0.562266 10.6199C0.565553 10.8673 0.618959 11.0082 0.768992 11.1655C0.908204 11.3115 1.01904 11.3829 1.25071 11.4761C1.35058 11.5162 1.44413 11.5651 1.45856 11.5846C1.48232 11.6168 1.5009 11.7072 1.6023 12.2837C1.61911 12.3791 1.64542 12.5215 1.66079 12.6001C1.67619 12.6787 1.69481 12.7798 1.70218 12.8247C1.72271 12.9498 1.78621 13.1269 1.90823 13.3995C2.09407 13.8145 2.10532 13.8719 2.10977 14.4273C2.11397 14.9521 2.13063 15.0486 2.256 15.2747C2.38505 15.5075 2.6687 15.7022 2.96936 15.7644C3.35 15.8431 4.45533 15.868 4.88676 15.8076C5.17654 15.767 5.56678 15.7611 5.69425 15.7954C5.87354 15.8437 5.99464 15.9289 6.12881 16.1014C6.25727 16.2665 6.39815 16.5275 6.66882 17.1017C6.71381 17.1972 6.82504 17.43 6.91601 17.619C7.00698 17.8081 7.08141 17.9712 7.08141 17.9814C7.08141 17.9916 7.09091 18 7.10248 18C7.11408 18 7.3139 17.9003 7.54652 17.7785C7.77915 17.6566 8.17159 17.4529 8.41862 17.3259C8.66564 17.1988 9.14667 16.9494 9.48754 16.7716C9.82844 16.5939 10.11 16.4484 10.1133 16.4484C10.1166 16.4484 10.3829 16.3106 10.7051 16.1422C11.0273 15.9738 11.294 15.836 11.2978 15.836C11.3016 15.836 11.4683 15.7502 11.6684 15.6454C12.0727 15.4335 12.6789 15.1191 13.1754 14.8636C13.355 14.7712 13.5046 14.6834 13.5076 14.6686C13.5107 14.6538 13.4772 14.4809 13.4331 14.2844C13.3238 13.7979 13.3005 13.5891 13.3136 13.2164C13.3264 12.8549 13.361 12.6449 13.4717 12.2582C13.6051 11.7919 13.7829 11.3815 14.301 10.3442C14.8192 9.30666 14.9359 9.05812 15.0394 8.77227C15.3279 7.97485 15.441 7.34038 15.4378 6.53679C15.4346 5.71458 15.3189 5.07991 15.0306 4.30372C14.7041 3.42476 14.1599 2.60594 13.4494 1.92476C12.3633 0.883396 11.0556 0.266649 9.48021 0.0527578C9.06889 -0.00307812 8.06233 -0.0182671 7.64283 0.0250338ZM9.33016 2.2788C10.0121 2.40009 10.6033 2.63193 11.1355 2.98681C12.7298 4.04981 13.5037 5.94452 13.1108 7.82296C12.9206 8.73219 12.4766 9.53131 11.7948 10.1914C10.7471 11.2058 9.30407 11.665 7.8572 11.4444C7.66321 11.4148 7.31392 11.333 7.17518 11.2846C7.01239 11.2278 6.93991 11.2315 6.77249 11.305C6.34632 11.492 5.96312 11.6036 5.57778 11.6529C5.31841 11.6861 4.68931 11.6815 4.61461 11.6459C4.50345 11.5929 4.52427 11.5456 4.85173 11.1078C5.31751 10.4852 5.31549 10.4886 5.31549 10.312V10.1639L5.17193 10.0142C4.71897 9.5418 4.3437 8.89484 4.13276 8.22269C3.8296 7.25661 3.87508 6.0987 4.2535 5.14855C4.53685 4.43713 4.96894 3.83476 5.56047 3.32658C6.05687 2.9001 6.70989 2.55182 7.3264 2.38476C7.54115 2.32656 7.88759 2.26031 8.08671 2.23938C8.37521 2.20903 9.05992 2.23075 9.33016 2.2788ZM9.9925 4.08185C9.96424 4.10712 9.84806 4.28855 9.73436 4.48505C9.62065 4.68155 9.47676 4.92851 9.4146 5.03385C9.30005 5.22798 9.28104 5.29721 9.32704 5.35264C9.36264 5.39553 9.39651 5.39178 9.60238 5.32218C9.70186 5.28856 9.78687 5.26467 9.7913 5.26908C9.80759 5.28539 9.7499 5.45733 9.68469 5.58684C9.59699 5.76099 9.45155 5.95291 9.33139 6.05309C9.08291 6.26022 8.83779 6.37392 8.2488 6.55524C7.73642 6.71299 7.50385 6.83295 7.24198 7.07461C7.16748 7.14335 7.0777 7.24453 7.04244 7.29945C6.98409 7.39037 6.96974 7.40046 6.88187 7.4123C6.65571 7.44274 6.44658 7.5961 6.34221 7.80801C6.28048 7.93338 6.27501 7.96029 6.27501 8.13892C6.27501 8.30696 6.2824 8.34912 6.32952 8.44962C6.48872 8.78923 6.88365 8.95584 7.23524 8.83172C7.45755 8.75324 7.63581 8.56709 7.70194 8.34436C7.77382 8.10234 7.72776 7.89959 7.54076 7.63483C7.51181 7.59383 7.74789 7.3737 7.91693 7.28405C7.98883 7.24592 8.26705 7.14272 8.53519 7.05473C9.11002 6.86607 9.2611 6.80292 9.48021 6.65973C9.88789 6.39329 10.177 6.01144 10.305 5.57037C10.3267 5.49557 10.3507 5.39531 10.3582 5.3476C10.3657 5.29989 10.3788 5.26083 10.3872 5.26083C10.3957 5.26083 10.4821 5.28839 10.5793 5.32208C10.6766 5.35576 10.7692 5.38332 10.7853 5.38332C10.8288 5.38332 10.8787 5.32524 10.8786 5.27469C10.8785 5.20591 10.2454 4.11347 10.1785 4.06664C10.1165 4.02321 10.0522 4.02848 9.9925 4.08185ZM7.35702 4.19017C7.32333 4.20748 7.19731 4.3195 7.07698 4.43909C6.95665 4.55869 6.8548 4.65239 6.85066 4.64735C6.76596 4.54421 6.57889 4.35053 6.49182 4.27579C6.39858 4.19576 6.36486 4.17882 6.29871 4.17882C6.15886 4.17882 6.01873 4.30878 6.02027 4.43709C6.02137 4.52925 6.10501 4.64819 6.29236 4.82403C6.4007 4.92571 6.48927 5.01738 6.48912 5.02769C6.489 5.03802 6.39736 5.13752 6.28548 5.24881C6.07065 5.46247 6.02657 5.53889 6.04905 5.65871C6.07341 5.78855 6.26331 5.90181 6.39062 5.86241C6.41685 5.85428 6.54159 5.74606 6.66778 5.62192L6.89725 5.39623L6.95359 5.44573C6.9846 5.47297 7.08429 5.5662 7.17514 5.65291C7.26601 5.73963 7.36535 5.82011 7.39593 5.83173C7.6185 5.91635 7.82069 5.70133 7.7337 5.47254C7.7219 5.44155 7.61893 5.32132 7.50483 5.20538L7.29739 4.99458L7.49339 4.79595C7.71184 4.57459 7.7347 4.54033 7.7347 4.43434C7.7347 4.22486 7.53747 4.09734 7.35702 4.19017ZM10.9297 7.5341C10.896 7.54947 10.7669 7.66463 10.6427 7.79003L10.417 8.018L10.2077 7.79335C9.98913 7.55868 9.90385 7.50584 9.78988 7.53447C9.71177 7.55406 9.61837 7.64253 9.59225 7.72161C9.54971 7.85056 9.57998 7.90731 9.82313 8.15432L10.0488 8.38362L9.83236 8.60562C9.66187 8.78043 9.61287 8.8436 9.60175 8.90289C9.56514 9.098 9.74723 9.26722 9.93897 9.2163C9.98976 9.20281 10.0725 9.13344 10.2312 8.97136L10.4526 8.74526L10.6095 8.8978C10.9059 9.18605 10.9274 9.20099 11.0445 9.20099C11.1385 9.20099 11.1567 9.19313 11.2281 9.12174C11.2948 9.05502 11.3074 9.02899 11.3074 8.95739C11.3074 8.83743 11.2749 8.78772 11.0536 8.56852C10.9462 8.46208 10.8583 8.36641 10.8583 8.35594C10.8583 8.34549 10.9536 8.23914 11.0701 8.11967C11.3065 7.87726 11.3298 7.82879 11.2754 7.69287C11.2172 7.54721 11.0596 7.47485 10.9297 7.5341Z" fill="#FFE0B2"/>
</svg>
