<svg width="18" height="18" viewBox="0 0 18 18" fill="none" xmlns="http://www.w3.org/2000/svg">
<path fill-rule="evenodd" clip-rule="evenodd" d="M7.5471 0.10658C5.60151 0.462408 3.98615 1.29699 2.64272 2.64041C-0.407692 5.6909 -0.873855 10.4416 1.52686 14.0134C4.29929 18.1383 9.89929 19.2422 14.0157 16.4755C18.1406 13.7031 19.2446 8.10307 16.4778 3.98665C15.3189 2.26243 13.4177 0.872454 11.4978 0.345674C10.2261 -0.00312143 8.66409 -0.0977041 7.5471 0.10658ZM8.43976 3.05784V4.99169L7.89477 4.98951C7.32868 4.98719 5.70952 4.81652 5.64539 4.75231C5.57169 4.67862 5.98947 3.50579 6.33588 2.81375C6.578 2.33022 6.82637 1.95907 7.11272 1.65288C7.53768 1.19868 7.62396 1.15662 8.17606 1.13454L8.43976 1.12399V3.05784ZM10.8764 1.64318C11.1841 1.96455 11.4123 2.30139 11.6668 2.80982C12.0148 3.50502 12.4332 4.67848 12.3593 4.75231C12.2951 4.81652 10.676 4.98719 10.1099 4.98951L9.56491 4.99169V3.04786V1.10395L10.0044 1.14762C10.4336 1.19031 10.4541 1.20198 10.8764 1.64318ZM5.2717 2.48606C4.99379 3.07894 4.57207 4.28003 4.57207 4.47841C4.57207 4.56329 4.5194 4.57552 4.31708 4.53755C4.0211 4.48207 2.86529 4.15219 2.82479 4.11168C2.77057 4.05746 3.44453 3.33125 3.90071 2.95236C4.32559 2.59948 5.38344 1.90239 5.49926 1.89894C5.52577 1.89817 5.42338 2.16236 5.2717 2.48606ZM13.0959 2.23297C13.3942 2.41595 13.8479 2.73964 14.104 2.95236C14.5601 3.33125 15.2341 4.05746 15.1799 4.11168C15.1394 4.15219 13.9836 4.48207 13.6876 4.53755C13.4853 4.57552 13.4326 4.56329 13.4326 4.47841C13.4326 4.28003 13.0109 3.07894 12.733 2.48606C12.5813 2.16236 12.4789 1.89817 12.5054 1.89894C12.5319 1.89971 12.7977 2.05006 13.0959 2.23297ZM2.82296 5.26447C3.18547 5.37579 3.66689 5.50799 3.89269 5.55834C4.27925 5.64441 4.30126 5.66038 4.26814 5.83056C4.21617 6.09771 4.08601 7.26793 4.03875 7.89246L3.99747 8.43745H2.55285H1.10816L1.15668 7.99794C1.21428 7.47587 1.41849 6.65037 1.61947 6.12731C1.7746 5.72353 2.09689 5.06201 2.13852 5.06201C2.15244 5.06201 2.46045 5.15308 2.82296 5.26447ZM16.0661 5.40652C16.4509 6.16592 16.7583 7.18453 16.848 7.99794L16.8965 8.43745H15.4518H14.0072L13.9659 7.89246C13.9188 7.26969 13.7886 6.09806 13.7369 5.83224C13.7036 5.66136 13.7257 5.64751 14.2178 5.53148C14.5014 5.46453 14.9709 5.33296 15.261 5.23908C15.551 5.14513 15.8116 5.06686 15.8399 5.06517C15.8683 5.06342 15.97 5.21707 16.0661 5.40652ZM6.36527 5.9712C6.67469 6.00784 7.26806 6.05861 7.6838 6.08407L8.43976 6.13034V7.28389V8.43745H6.7872H5.13464V8.03043C5.13464 7.8066 5.18183 7.24487 5.23956 6.78222C5.2973 6.31957 5.34476 5.91586 5.34504 5.88513C5.34533 5.85432 5.44849 5.84617 5.57415 5.86684C5.69982 5.88759 6.05586 5.93456 6.36527 5.9712ZM12.6596 5.88829C12.6599 5.91726 12.7074 6.31957 12.7651 6.78222C12.8228 7.24487 12.87 7.8066 12.87 8.03043V8.43745H11.2175H9.56491V7.28389V6.13034L10.3209 6.08294C10.7366 6.05685 11.3933 5.99426 11.78 5.94384C12.6919 5.825 12.659 5.82711 12.6596 5.88829ZM4.03875 10.1076C4.08601 10.7321 4.21617 11.9023 4.26814 12.1695C4.30126 12.3397 4.27925 12.3556 3.89269 12.4417C3.66689 12.4921 3.18547 12.6243 2.82296 12.7356C2.46045 12.847 2.15244 12.938 2.13852 12.938C2.09689 12.938 1.7746 12.2765 1.61947 11.8727C1.41849 11.3497 1.21428 10.5242 1.15668 10.0021L1.10816 9.5626H2.55285H3.99747L4.03875 10.1076ZM8.43976 10.7162V11.8697L7.6838 11.9164C7.26806 11.9421 6.58032 12.0063 6.1555 12.0592C5.73069 12.1119 5.37592 12.1479 5.36706 12.139C5.3243 12.0963 5.13464 10.3254 5.13464 9.96906V9.5626H6.7872H8.43976V10.7162ZM12.87 9.96906C12.87 10.3254 12.6804 12.0963 12.6376 12.139C12.6288 12.1479 12.274 12.1119 11.8492 12.0592C11.4244 12.0063 10.7366 11.9421 10.3209 11.9164L9.56491 11.8697V10.7162V9.5626H11.2175H12.87V9.96906ZM16.848 10.0021C16.7904 10.5242 16.5862 11.3497 16.3852 11.8727C16.2301 12.2765 15.9078 12.938 15.8662 12.938C15.8522 12.938 15.5442 12.847 15.1817 12.7356C14.8192 12.6243 14.3378 12.4921 14.112 12.4417C13.7254 12.3556 13.7034 12.3397 13.7365 12.1695C13.7885 11.9023 13.9187 10.7321 13.9659 10.1076L14.0072 9.5626H15.4518H16.8965L16.848 10.0021ZM8.43976 14.9522V16.8961L8.00025 16.8524C7.57108 16.8097 7.55061 16.7981 7.12826 16.3569C6.82061 16.0355 6.59241 15.6987 6.33785 15.1902C5.98645 14.4883 5.57169 13.3214 5.64694 13.2462C5.71367 13.1795 7.18494 13.0239 7.82445 13.016L8.43976 13.0084V14.9522ZM11.4888 13.1119C11.9474 13.1664 12.3392 13.2276 12.3593 13.2477C12.4332 13.3216 12.0148 14.495 11.6668 15.1902C11.4123 15.6987 11.1841 16.0355 10.8764 16.3569C10.4541 16.7981 10.4336 16.8097 10.0044 16.8524L9.56491 16.8961V14.9522V13.0084L10.1099 13.0105C10.4096 13.0117 11.0301 13.0574 11.4888 13.1119ZM4.57207 13.5294C4.57207 13.7211 4.99892 14.9319 5.2717 15.514C5.42338 15.8377 5.53126 16.1025 5.51157 16.1025C5.4243 16.1025 4.48536 15.5173 4.1417 15.2487C3.74663 14.94 2.81403 14.0083 2.81403 13.9223C2.81403 13.895 3.04349 13.8062 3.32386 13.7249C4.46455 13.3942 4.57207 13.3774 4.57207 13.5294ZM14.5476 13.6856C14.8802 13.782 15.1648 13.8732 15.1799 13.8884C15.2341 13.9426 14.5601 14.6688 14.104 15.0477C13.6791 15.4006 12.6212 16.0977 12.5054 16.1011C12.4789 16.1019 12.5813 15.8377 12.733 15.514C13.0109 14.9211 13.4326 13.72 13.4326 13.5216C13.4326 13.3927 13.644 13.4238 14.5476 13.6856Z" fill="white"/>
</svg>
