<svg width="512" height="512" viewBox="0 0 512 512" fill="none" xmlns="http://www.w3.org/2000/svg">
<path fill-rule="evenodd" clip-rule="evenodd" d="M234.58 0.320044C200.957 4.19704 178.459 9.97404 151.774 21.579C121.405 34.788 88.6896 58.327 66.7886 82.728C31.4146 122.141 9.96264 167.298 1.94464 219.228C-0.65636 236.077 -0.64636 275.143 1.96364 292.228C7.73164 329.979 21.2756 365.514 41.4176 395.743C52.9986 413.123 61.1656 423.181 74.6466 436.661C113.995 476.009 163.245 500.795 219.08 509.349C236.037 511.946 275.123 511.946 292.08 509.349C347.667 500.833 396.998 476.04 436.398 436.818C469.216 404.147 492.777 362.738 503.872 318.228C509.754 294.633 511.039 283.428 511.039 255.728C511.039 227.621 509.733 216.508 503.575 192.228C482.878 110.613 422.789 44.244 343.08 14.961C330.107 10.195 307.326 4.43004 292.58 2.18204C282.608 0.661044 242.721 -0.618956 234.58 0.320044ZM158.632 99.837C165.394 103.441 168.448 106.622 172.345 114.121C174.6 118.461 175.002 120.505 175.021 127.728C175.041 135.512 174.756 136.759 171.645 142.529C167.861 149.547 164.723 152.577 157.187 156.493C152.832 158.756 150.829 159.147 143.58 159.147C136.331 159.147 134.328 158.756 129.973 156.493C122.437 152.577 119.299 149.547 115.515 142.529C112.404 136.759 112.119 135.512 112.139 127.728C112.158 120.505 112.56 118.461 114.815 114.121C118.593 106.851 121.665 103.544 127.685 100.267C134.741 96.427 137.843 95.734 145.831 96.21C151.009 96.518 153.992 97.363 158.632 99.837ZM175.58 287.728V399.728H143.58H111.58V287.728V175.728H143.58H175.58V287.728ZM271.65 190.978C271.714 204.737 271.849 205.881 273.03 202.673C276.803 192.433 281.439 186.881 289.765 182.633C299.618 177.607 315.493 175.17 332.58 176.06C375.287 178.284 394.185 201.387 398.524 256.678C399.116 264.216 399.58 298.611 399.58 334.928V399.728H367.613H335.645L335.363 330.478C335.086 262.62 335.038 261.138 332.988 256.728C329.87 250.021 326.139 246.15 319.784 243.029C314.627 240.497 313.073 240.229 303.58 240.243C295.068 240.255 292.218 240.654 288.529 242.349C281.913 245.388 277.16 249.988 274.456 255.971L272.08 261.228L271.797 330.478L271.515 399.728H239.547H207.58V287.728V175.728H239.58H271.58L271.65 190.978Z" fill="white"/>
</svg>
