<svg width="622" height="556" viewBox="0 0 622 556" fill="none" xmlns="http://www.w3.org/2000/svg">
<path fill-rule="evenodd" clip-rule="evenodd" d="M590.705 0.759607C579.959 4.65548 16.6785 228.868 13.2596 230.611C-3.95159 239.382 -4.53275 264.042 12.2493 273.524C15.1052 275.138 50.8809 289.185 91.7484 304.738L166.052 333.016L187.091 412.686C198.661 456.505 208.816 494.016 209.657 496.046C214.538 507.83 229.479 514.034 240.862 509.006C243.916 507.656 265.107 493.111 287.952 476.684C310.797 460.256 330 446.815 330.624 446.815C331.249 446.815 366.906 470.652 409.863 499.786C452.82 528.92 490.088 553.512 492.68 554.435C499.059 556.707 505.224 556.505 511.118 553.83C516.294 551.482 522.098 545.493 523.973 540.568C524.587 538.957 547.015 422.797 573.814 282.435C610.085 92.4632 622.4 25.7354 621.99 21.3781C620.895 9.71234 609.823 -0.198572 598.113 0.00302244C595.041 0.0552427 591.708 0.396495 590.705 0.759607ZM483.046 100.447C479.671 103.595 420.778 160.13 352.176 226.081C258.868 315.782 226.976 347.144 225.591 350.56C223.348 356.089 223.895 357.375 216.418 328.982C210.153 305.189 208.465 300.838 203.884 296.667C199.467 292.646 194.707 290.641 142.211 270.682C105.339 256.663 93.6852 251.763 95.4019 251.001C100.142 248.897 487.994 94.7475 488.575 94.7366C488.91 94.7305 486.421 97.3002 483.046 100.447ZM521.465 291.437C501.412 396.599 484.578 484.162 484.055 486.023L483.104 489.406L385.597 423.48C331.97 387.221 288.2 357.208 288.331 356.782C288.937 354.838 557.187 98.0289 557.532 99.0623C557.747 99.7072 541.516 186.275 521.465 291.437ZM268.815 404.201C278.01 410.377 285.533 415.88 285.533 416.428C285.533 417.518 247.812 444.76 247.178 444.129C246.753 443.702 229.605 379.306 229.605 378.132C229.605 377.736 234.665 380.912 240.851 385.191C247.037 389.47 259.621 398.024 268.815 404.201Z" fill="white"/>
</svg>
