<svg width="506" height="511" viewBox="0 0 506 511" fill="none" xmlns="http://www.w3.org/2000/svg">
<path fill-rule="evenodd" clip-rule="evenodd" d="M233.868 0.377236C226.13 0.982056 212.241 2.96301 203.505 4.70822C182.184 8.96701 163.634 15.4138 142.257 25.9933C99.0618 47.3705 64.7508 78.4425 38.5176 119.941C31.8679 130.46 19.8864 154.97 15.4707 167.089C8.82537 185.323 4.18301 204.421 1.68045 223.814C0.0307137 236.597 -0.524103 262.282 0.557569 275.791C8.67821 377.188 76.8191 465.21 172.459 497.847C201.17 507.645 228.577 511.735 259.892 510.893C298.059 509.866 329.142 502.113 363.743 484.989C406.938 463.612 441.249 432.54 467.482 391.042C474.132 380.523 486.114 356.012 490.529 343.894C497.175 325.66 501.817 306.561 504.32 287.169C505.969 274.386 506.524 248.7 505.442 235.191C498.606 149.833 449.301 73.1428 374.342 31.2724C344.108 14.3839 309.464 3.766 274.339 0.62329C266.53 -0.0758264 241.6 -0.227584 233.868 0.377236ZM273.603 61.7801C297.96 63.9953 318.078 69.3326 337.253 78.6665C351.587 85.6444 362.046 92.9626 373.577 104.085C392.845 122.67 405.57 143.311 415.316 171.784C418.349 180.646 419.134 184.033 418.154 184.033C417.929 184.033 410.795 185.896 402.299 188.174C393.804 190.451 386.761 192.191 386.648 192.041C386.534 191.891 385.217 188.024 383.721 183.448C369.395 139.626 340.037 111.19 298.015 100.435C263.714 91.6565 224.973 93.7685 194.869 106.057C145.114 126.369 118.344 178.644 118.344 255.491C118.344 284.299 121.706 307.565 129.096 329.897C145.668 379.974 179.28 407.521 232.397 414.555C248.213 416.65 269.293 416.215 285.744 413.455C310.253 409.343 329.686 399.637 346.103 383.307C360.921 368.567 368.111 353.203 369.028 334.317C369.513 324.344 368.575 317.262 365.635 308.709C362.905 300.763 359.737 295.58 353.511 288.871C348.623 283.605 339.42 276.281 338.654 277.048C338.451 277.252 337.486 281.359 336.51 286.175C328.376 326.31 305.979 350.226 270.66 356.491C262.629 357.916 244.532 357.743 236.582 356.165C213.405 351.568 195.563 338.951 186.414 320.688C181.966 311.81 180.782 306.969 180.348 295.881C179.921 284.982 180.778 279.003 183.949 270.773C192.466 248.661 214.154 233.252 243.787 228.257C259.19 225.661 284.048 225.655 300.418 228.243C302.822 228.623 304.891 228.834 305.014 228.71C305.702 228.021 301.735 215.166 299.183 209.817C293.63 198.177 283.119 190.071 269.924 187.253C262.235 185.611 248.975 185.612 241.595 187.254C230.376 189.751 219.8 196.388 213.363 204.973L211.747 207.127L207.54 204.184C205.225 202.565 199.523 198.648 194.869 195.481C183.746 187.909 184.063 188.229 185.512 186.015C193.685 173.527 209.609 161.693 225.363 156.398C251.113 147.744 283.369 151.285 304.149 165.047C310.151 169.022 319.153 178.068 323.41 184.401C331.735 196.786 336.999 212.624 339.065 231.507C339.506 235.535 339.941 238.894 340.031 238.973C340.122 239.051 343.192 240.614 346.853 242.447C375.47 256.772 394.565 280.452 400.48 308.947C402.558 318.959 403.215 329.331 402.383 339.004C400.083 365.74 389.586 387.76 369.668 407.628C344.289 432.944 314.431 445.831 273.092 449.314C259.682 450.444 236.383 449.75 223.82 447.848C155.977 437.573 111.556 396.545 93.3231 327.318C81.9648 284.194 81.9648 226.788 93.3231 183.664C102.883 147.368 120.723 117.188 144.348 97.34C169.248 76.4218 198.332 65.3214 238.283 61.4884C244.439 60.8983 265.845 61.0751 273.603 61.7801ZM249.309 261.729C241.832 262.944 232.092 266.375 227.211 269.511C222.365 272.624 217.926 277.632 215.59 282.62C213.925 286.176 213.633 287.791 213.633 293.431C213.633 301.62 215.573 306.354 221.269 312.056C228.818 319.614 240.176 323.446 254.84 323.384C275.857 323.295 289.145 315.6 297.452 298.705C299.276 294.994 301.427 289.543 302.23 286.593C304.151 279.543 306.26 265.054 305.48 264.273C302.687 261.477 262.148 259.64 249.309 261.729Z" fill="white"/>
</svg>
