<svg width="22" height="16" viewBox="0 0 22 16" fill="none" xmlns="http://www.w3.org/2000/svg">
<path fill-rule="evenodd" clip-rule="evenodd" d="M4.24543 0.0784354C2.26127 0.230971 1.21374 1.02757 0.828743 2.67668C0.402697 4.50197 0.386987 11.1217 0.803682 13.2223C1.05963 14.5121 1.91265 15.4362 3.15441 15.7692C3.74897 15.9287 4.51615 15.9534 9.94973 15.9888C16.5983 16.0321 18.4512 15.9586 19.3334 15.6169C20.4668 15.1779 21.0482 14.3331 21.3342 12.7102C21.5553 11.4551 21.5553 4.53671 21.3342 3.28158C20.9373 1.0289 20.0443 0.258209 17.6178 0.074632C16.2747 -0.0270241 5.57762 -0.0239402 4.24543 0.0784354ZM12.3343 6.07779C14.6228 7.53695 14.9527 7.7786 14.9527 7.99589C14.9527 8.21318 14.6228 8.45484 12.3343 9.914C10.8942 10.8323 9.62271 11.5858 9.50882 11.5885C9.39389 11.5913 9.25708 11.5017 9.20134 11.3872C9.07379 11.1254 9.08427 4.84497 9.21257 4.58142C9.26157 4.48069 9.39492 4.40062 9.50882 4.40329C9.62271 4.40596 10.8942 5.15949 12.3343 6.07779Z" fill="#F6455D"/>
</svg>
