<svg width="256" height="256" viewBox="0 0 256 256" fill="none" xmlns="http://www.w3.org/2000/svg">
<path fill-rule="evenodd" clip-rule="evenodd" d="M112.586 0.350575C92.3827 4.05757 83.9877 6.60057 71.2057 12.8886C35.5337 30.4356 10.4138 63.0076 1.90575 102.746C-0.63525 114.614 -0.63525 140.878 1.90575 152.746C12.9038 204.11 51.2217 242.428 102.586 253.426C114.454 255.967 140.718 255.967 152.586 253.426C203.95 242.428 242.268 204.11 253.266 152.746C254.609 146.474 255.086 139.922 255.086 127.746C255.086 115.57 254.609 109.018 253.266 102.746C242.359 51.8066 204.239 13.3746 153.586 2.25058C146.332 0.657575 118.055 -0.652425 112.586 0.350575ZM119.586 41.7456V66.7456H114.229C108.466 66.7456 82.2947 64.7206 81.7667 64.2346C81.0777 63.6006 87.8177 48.8066 92.2437 41.2366C99.0767 29.5516 112.476 16.9966 118.336 16.7896C119.304 16.7556 119.586 22.3886 119.586 41.7456ZM141.856 18.8836C148.091 22.0646 157.641 32.1956 162.928 41.2366C167.513 49.0796 174.077 63.5886 173.362 64.3026C172.677 64.9876 151.085 66.7436 143.336 66.7446L135.586 66.7456V41.7456C135.586 25.1066 135.934 16.7456 136.626 16.7456C137.198 16.7456 139.551 17.7076 141.856 18.8836ZM84.5857 24.2146C84.5857 24.4726 82.5397 27.8466 80.0387 31.7126C75.7117 38.4016 66.6367 57.8406 66.6017 60.4956C66.5927 61.1836 65.6777 61.7456 64.5687 61.7456C61.8057 61.7456 43.4317 57.7356 41.6287 56.7396C40.5077 56.1196 41.8917 54.2246 47.6287 48.5216C56.6838 39.5206 64.1797 33.9306 74.9447 28.1506C82.7837 23.9406 84.5857 23.2056 84.5857 24.2146ZM178.361 27.1486C190.782 33.4336 205.584 44.9046 212.435 53.5556L215.504 57.4296L204.795 59.6286C198.905 60.8386 193.064 62.0456 191.814 62.3116C190.244 62.6456 189.356 62.2466 188.939 61.0206C186.3 53.2536 178.891 37.5226 175.146 31.7316C172.638 27.8556 170.586 24.4726 170.586 24.2146C170.586 23.3466 171.611 23.7326 178.361 27.1486ZM41.5858 72.6516C45.7108 73.7436 51.9198 75.1736 55.3848 75.8306C61.4418 76.9796 61.6618 77.1246 61.1208 79.6356C59.1328 88.8636 57.4758 100.653 56.9228 109.496L56.2817 119.746H35.9338H15.5857V116.704C15.5857 103.549 28.0968 68.8616 32.3758 70.1516C33.3168 70.4356 37.4608 71.5606 41.5858 72.6516ZM229.437 79.6586C234.078 89.6486 238.255 104.093 239.22 113.496L239.862 119.746H219.374H198.887L198.192 108.996C197.81 103.084 196.67 93.7456 195.66 88.2456C194.649 82.7456 193.96 78.0926 194.128 77.9046C194.297 77.7176 199.306 76.5276 205.26 75.2596C211.214 73.9926 217.661 72.4986 219.586 71.9406C221.511 71.3826 223.583 70.8856 224.191 70.8356C224.799 70.7866 227.159 74.7566 229.437 79.6586ZM102.586 81.2966C121.739 82.1746 119.586 79.6466 119.586 101.265V119.746H95.5857H71.5857L71.5938 117.496C71.6087 113.33 73.6087 97.3146 75.2307 88.3686L76.8397 79.4926L83.4627 80.1086C87.1057 80.4466 95.7107 80.9816 102.586 81.2966ZM179.461 85.4956C181.012 93.2646 182.316 102.661 183.138 111.996L183.821 119.746H159.703H135.586V101.371V82.9956L138.711 82.3706C140.43 82.0266 145.717 81.6896 150.461 81.6216C155.205 81.5526 162.236 81.1736 166.086 80.7786C179.324 79.4196 178.166 79.0116 179.461 85.4956ZM56.9308 145.496C57.4908 153.951 59.2107 165.989 61.1297 174.894C61.6767 177.437 61.4877 177.571 56.3927 178.257C53.4737 178.65 46.8207 180.045 41.6087 181.358C36.3967 182.672 31.5668 183.746 30.8758 183.746C26.8508 183.746 15.6588 150.958 15.6018 138.996L15.5857 135.746H35.9357H56.2848L56.9308 145.496ZM119.586 154.091V172.436L104.336 173.097C95.9477 173.461 86.3567 174.035 83.0217 174.374L76.9587 174.99L75.7017 169.373C74.4687 163.864 71.6787 142.429 71.6167 137.996L71.5857 135.746H95.5857H119.586V154.091ZM183.09 143.496C182.274 152.985 180.923 162.486 179.376 169.626L178.21 175.006L170.148 174.367C165.714 174.016 156.123 173.44 148.836 173.088L135.586 172.446V154.096V135.746H159.671H183.757L183.09 143.496ZM239.22 141.996C238.867 145.434 237.453 152.448 236.078 157.583C233.325 167.865 225.932 184.752 224.191 184.735C223.583 184.729 220.836 184.031 218.086 183.184C215.336 182.337 208.842 180.76 203.655 179.68C198.467 178.6 194.097 177.591 193.944 177.437C193.79 177.283 194.551 172.24 195.634 166.229C196.718 160.219 197.893 150.901 198.246 145.524L198.887 135.746H219.374H239.862L239.22 141.996ZM119.586 213.263V238.78L114.453 236.179C104.055 230.91 94.6257 219.524 86.6947 202.662C80.2837 189.032 79.9737 190.038 90.7987 189.333C95.9067 189 101.661 188.579 103.586 188.397C105.511 188.215 109.899 187.994 113.336 187.906L119.586 187.746V213.263ZM166.086 189.635C174.435 190.366 174.401 190.187 168.5 202.662C160.494 219.586 151.102 230.917 140.719 236.179L135.586 238.78V213.191V187.602L147.336 188.311C153.799 188.702 162.236 189.297 166.086 189.635ZM67.9627 197.996C70.9247 206.421 77.0877 218.712 82.0077 226.005L86.5667 232.765L82.8257 231.206C76.7427 228.67 66.8587 223.007 60.7687 218.568C54.2757 213.835 39.1788 198.82 40.0428 197.955C40.9198 197.079 59.6758 192.9 63.1007 192.818C65.8568 192.752 66.2747 193.197 67.9627 197.996ZM206.674 196.061L216.086 198.302L208.086 206.357C196.856 217.664 184.914 225.967 172.346 231.206L168.605 232.765L173.164 226.005C178.114 218.667 184.271 206.371 187.225 197.923L189.086 192.601L193.174 193.21C195.423 193.546 201.498 194.828 206.674 196.061Z" fill="black"/>
</svg>
