<svg width="18" height="18" viewBox="0 0 18 18" fill="none" xmlns="http://www.w3.org/2000/svg">
<path fill-rule="evenodd" clip-rule="evenodd" d="M0.463196 8.65098V17.302L0.602065 17.5081C0.678496 17.6214 0.837953 17.7711 0.956482 17.8408C1.17061 17.9665 1.22602 17.9675 9.35444 17.9837L17.5368 18V9.43544C17.5368 3.53412 17.5164 0.817008 17.4713 0.697431C17.3821 0.461297 17.1161 0.187502 16.8762 0.0848751C16.7111 0.0142383 15.3176 0 8.57053 0H0.463196V8.65098ZM16.238 1.51845C16.3642 1.67895 16.3657 1.72721 16.3657 5.70297C16.3657 9.57123 16.3612 9.73068 16.2479 9.8706L16.1301 10.0161L9.11331 10.0325C4.1132 10.0441 2.04938 10.0293 1.93239 9.98093C1.84203 9.94364 1.73743 9.83892 1.6999 9.74831C1.65176 9.63213 1.63659 8.40517 1.64837 5.58758L1.66513 1.59167L1.81066 1.47382C1.95199 1.35936 2.15749 1.35603 9.03318 1.35603H16.1102L16.238 1.51845ZM3.27079 2.15294C3.33471 2.21538 8.95897 5.23921 9.01124 5.23921C9.05666 5.23921 14.7198 2.20934 14.7909 2.14703C14.8231 2.1188 12.2311 2.09568 9.03084 2.09568C5.4495 2.09568 3.23474 2.11769 3.27079 2.15294ZM2.4356 5.66765C2.4356 7.36435 2.44842 8.75256 2.46408 8.75256C2.56788 8.75256 8.15885 5.69871 8.12187 5.66229C8.09635 5.63714 6.97984 5.02982 5.64076 4.31267C4.30168 3.59551 3.03275 2.91294 2.82084 2.79576L2.4356 2.58274V5.66765ZM12.7185 4.12554C11.1702 4.95875 9.88951 5.65434 9.87256 5.67135C9.84476 5.69915 15.259 8.6278 15.5182 8.72519C15.62 8.76347 15.6261 8.59464 15.6261 5.71172C15.6261 4.03203 15.6053 2.64709 15.5798 2.63415C15.5544 2.62121 14.2668 3.29232 12.7185 4.12554ZM6.11846 7.66551L3.23689 9.21484L6.13855 9.23086C7.73441 9.23968 10.3339 9.23968 11.9152 9.23086L14.7901 9.21484L12.2649 7.86325C10.876 7.1199 9.57325 6.42265 9.36985 6.31392L9.00002 6.11619L6.11846 7.66551ZM16.2425 10.9715C16.3906 11.1196 16.3989 11.2665 16.2698 11.4509L16.1738 11.5879H9.0632C5.15235 11.5879 1.90657 11.5703 1.85035 11.5487C1.62112 11.4607 1.61699 11.0469 1.84388 10.8954C1.88117 10.8705 5.10834 10.8497 9.01543 10.8492C16.0376 10.8482 16.1206 10.8497 16.2425 10.9715ZM4.94765 12.5279C5.09798 12.7158 5.09509 12.8788 4.93859 13.0353L4.78345 13.1905H3.36017H1.93689L1.78175 13.0353C1.66766 12.9212 1.63783 12.8439 1.66883 12.7425C1.7587 12.4495 1.75081 12.4508 3.36017 12.4508C4.50688 12.4508 4.90136 12.47 4.94765 12.5279ZM5.76404 14.115C5.87788 14.2289 5.88725 14.3198 5.88639 15.3016C5.88584 15.8864 5.86506 16.3953 5.84016 16.4326C5.71442 16.6209 5.5006 16.6422 3.73123 16.6422H1.93689L1.78563 16.4909C1.63715 16.3424 1.63431 16.3206 1.63431 15.317C1.63431 14.3134 1.63715 14.2915 1.78563 14.1431L1.93689 13.9918H3.78886C5.5586 13.9918 5.64625 13.9972 5.76404 14.115ZM11.0032 14.115C11.1171 14.2289 11.1265 14.3205 11.1265 15.3125V16.3867L10.9641 16.5144C10.8082 16.6371 10.7295 16.6422 8.98892 16.6422H7.1761L7.02484 16.4909C6.87635 16.3424 6.87352 16.3206 6.87352 15.317C6.87352 14.3134 6.87635 14.2915 7.02484 14.1431L7.1761 13.9918H9.02806C10.7978 13.9918 10.8855 13.9972 11.0032 14.115ZM16.2425 14.115C16.3563 14.2289 16.3657 14.3205 16.3657 15.3125V16.3867L16.2033 16.5144C16.0474 16.6371 15.9687 16.6422 14.2281 16.6422H12.4153L12.264 16.4909C12.1156 16.3424 12.1127 16.3206 12.1127 15.317C12.1127 14.3134 12.1156 14.2915 12.264 14.1431L12.4153 13.9918H14.2673C16.037 13.9918 16.1247 13.9972 16.2425 14.115ZM2.4356 15.2849V15.8409H3.79404H5.15247L5.13466 15.3016L5.11684 14.7622L3.77622 14.7456L2.4356 14.729V15.2849ZM7.67481 15.2849V15.8409H9.03324H10.3917L10.3739 15.3016L10.356 14.7622L9.01543 14.7456L7.67481 14.729V15.2849ZM12.914 15.2849V15.8409H14.2724H15.6309L15.6131 15.3016L15.5953 14.7622L14.2546 14.7456L12.914 14.729V15.2849Z" fill="white"/>
</svg>
