<svg width="20" height="18" viewBox="0 0 20 18" fill="none" xmlns="http://www.w3.org/2000/svg">
<path fill-rule="evenodd" clip-rule="evenodd" d="M7.149 0.0227885C6.8227 0.0725291 6.38935 0.288263 6.137 0.526604C5.86193 0.786398 5.72219 0.990004 5.59534 1.31581C5.51014 1.53466 5.49394 1.63828 5.49172 1.97825C5.48891 2.41045 5.54614 2.6542 5.72311 2.96393L5.81484 3.12447L4.38207 5.15079L2.94927 7.17714L2.47255 7.18025C2.05221 7.18301 1.96516 7.19541 1.73638 7.28503C0.932126 7.60013 0.441437 8.30774 0.441437 9.15241C0.441437 9.71421 0.633644 10.1858 1.02021 10.5723C1.7976 11.3497 3.03274 11.351 3.82249 10.5754C4.5704 9.84075 4.62548 8.73721 3.95751 7.86929C3.93487 7.83989 4.39213 7.16102 5.31647 5.85153C6.08269 4.76614 6.71193 3.87438 6.71485 3.86989C6.71777 3.86536 6.8057 3.88935 6.91028 3.92316C7.32705 4.05788 7.95737 3.99612 8.39179 3.77809L8.5318 3.70777L8.95367 4.17939L9.37555 4.651L9.0213 4.8135C8.44211 5.07917 7.99594 5.39742 7.48295 5.91071C6.67409 6.72007 6.22301 7.55572 5.98014 8.69476C5.87429 9.19121 5.88511 10.2648 6.00144 10.804C6.465 12.9532 8.11872 14.5743 10.2758 14.9939C10.8218 15.1001 11.6503 15.1092 12.1751 15.0148C12.9511 14.8751 13.7633 14.5387 14.3599 14.11L14.6726 13.8852L14.8873 14.1021L15.102 14.319L15.0213 14.5293C14.9182 14.7982 14.8841 15.2931 14.9496 15.5692C15.0593 16.0308 15.1472 16.153 15.9438 16.9512C16.5877 17.5965 16.7315 17.7214 16.9473 17.8229C17.6501 18.1536 18.4784 18.0127 19.0142 17.4713C19.4247 17.0567 19.5725 16.669 19.5485 16.0708C19.535 15.7355 19.519 15.6676 19.3881 15.3916C19.2547 15.1101 19.1841 15.0266 18.5256 14.371C17.7526 13.6015 17.5657 13.4702 17.1068 13.3748C16.8414 13.3197 16.4242 13.3473 16.1465 13.4384L15.9431 13.5052L15.7188 13.2832L15.4944 13.0613L15.7027 12.7554C16.0841 12.1953 16.3382 11.6239 16.5089 10.9427C16.6436 10.405 16.6778 9.42203 16.5819 8.84383C16.4953 8.32167 16.2997 7.7221 16.0666 7.26422L15.8787 6.89528L16.139 6.644L16.3993 6.39273L16.5705 6.48841C16.8992 6.67217 17.1717 6.74552 17.5398 6.74935C18.4286 6.75868 19.1661 6.24078 19.4635 5.39842C19.5903 5.03929 19.5903 4.48232 19.4635 4.1232C19.2163 3.42288 18.6664 2.94877 17.9263 2.7979C16.9114 2.59095 15.8676 3.28198 15.6222 4.32339C15.548 4.63814 15.5483 4.87215 15.6234 5.20206L15.6835 5.46658L15.424 5.7124L15.1646 5.95826L14.8553 5.69049C14.2661 5.18026 13.675 4.83807 12.9749 4.60188C12.3726 4.39865 12.0513 4.34757 11.3145 4.33774L10.6544 4.32899L9.97819 3.57191C9.48336 3.01789 9.309 2.79786 9.32811 2.75153C9.63181 2.01548 9.40852 1.03928 8.81742 0.518966C8.35832 0.114862 7.7439 -0.0678652 7.149 0.0227885ZM7.73752 1.21595C8.05727 1.32303 8.26168 1.59303 8.29645 1.95438C8.31219 2.1178 8.29707 2.18654 8.20684 2.36182C8.06395 2.63935 7.84975 2.79068 7.56658 2.81413C7.05712 2.85639 6.65901 2.49811 6.65901 1.99744C6.65901 1.42938 7.20132 1.03644 7.73752 1.21595ZM17.9307 4.01585C18.4484 4.26647 18.5581 4.93344 18.1489 5.34322C17.6258 5.86707 16.7569 5.4974 16.7538 4.74968C16.7513 4.15229 17.39 3.7541 17.9307 4.01585ZM12.3165 5.6201C13.8784 6.03679 15.0633 7.27877 15.3964 8.84828C15.4796 9.2406 15.4901 10.1312 15.4156 10.4794C15.23 11.347 14.8788 12.0177 14.2876 12.6335C13.0088 13.9656 10.9447 14.2984 9.31752 13.435C8.49565 12.9989 7.88567 12.3649 7.48725 11.5327C6.72625 9.94323 7.01176 8.08836 8.21309 6.81744C8.8213 6.174 9.52289 5.78141 10.4203 5.58226C10.8744 5.48147 11.8715 5.50139 12.3165 5.6201ZM11.1687 7.29051C11.0275 7.35323 10.8995 7.4884 10.845 7.63221C10.818 7.70341 10.8041 8.38158 10.8041 9.61961C10.8041 11.6894 10.8022 11.6725 11.0399 11.8528C11.3207 12.066 11.7002 11.9954 11.8868 11.6953L11.9746 11.5541V9.61588C11.9746 7.74025 11.9721 7.67335 11.897 7.54336C11.812 7.39629 11.5404 7.23536 11.3812 7.23782C11.3276 7.23866 11.232 7.26234 11.1687 7.29051ZM8.85592 8.38523C8.7871 8.42844 8.69653 8.52006 8.65458 8.58887C8.58415 8.70432 8.57828 8.78361 8.57816 9.6198C8.57801 10.4978 8.5807 10.5297 8.66513 10.6561C8.91057 11.0234 9.48113 10.991 9.66712 10.5991C9.71882 10.4901 9.72941 10.3221 9.72933 9.61009C9.7293 8.66985 9.71011 8.57344 9.49111 8.41294C9.33636 8.29949 9.01477 8.28548 8.85592 8.38523ZM13.3901 8.364C13.3242 8.39383 13.2206 8.48337 13.1598 8.563L13.0493 8.70777L13.0369 9.53275C13.0264 10.2301 13.0344 10.3836 13.0883 10.5248C13.2532 10.9565 13.7906 11.0391 14.0819 10.6774L14.2007 10.5299V9.61516C14.2007 8.7511 14.1963 8.69453 14.1215 8.5944C13.9367 8.34689 13.6367 8.25236 13.3901 8.364ZM2.82457 8.43865C3.06967 8.56803 3.21509 8.79305 3.23543 9.0743C3.27412 9.60921 2.94351 9.97497 2.41801 9.97861C1.56079 9.98456 1.2866 8.82902 2.04956 8.42576C2.25282 8.31833 2.60784 8.32424 2.82457 8.43865ZM17.0523 14.5835C17.2289 14.6771 18.28 15.7633 18.3443 15.9186C18.5262 16.3585 18.2069 16.8313 17.7279 16.8313C17.4902 16.8313 17.3571 16.7343 16.7469 16.116C16.25 15.6126 16.1385 15.479 16.1026 15.3441C16.025 15.0527 16.1462 14.7746 16.4267 14.6003C16.5669 14.5133 16.9028 14.5042 17.0523 14.5835Z" fill="#FF8A00"/>
</svg>
