<svg width="27" height="18" viewBox="0 0 27 18" fill="none" xmlns="http://www.w3.org/2000/svg">
<path fill-rule="evenodd" clip-rule="evenodd" d="M1.06157 0.0994038C0.97192 0.154056 0.853916 0.27206 0.799263 0.361714C0.70111 0.52262 0.69986 0.630975 0.69986 9C0.69986 17.369 0.70111 17.4774 0.799263 17.6383C0.853916 17.7279 0.97192 17.8459 1.06157 17.9006C1.22113 17.9979 1.32273 18 5.94971 18C10.5767 18 10.6783 17.9979 10.8379 17.9006C10.9275 17.8459 11.0455 17.7279 11.1002 17.6383C11.1949 17.4829 11.1996 17.3828 11.1997 15.4878L11.1999 13.5002L12.4625 13.5C13.6341 13.4998 13.7368 13.4926 13.888 13.4004C13.9776 13.3458 14.0956 13.2278 14.1503 13.1381C14.2469 12.9796 14.2497 12.8794 14.2498 9.48752L14.25 5.99988H15.0251H15.8001L15.8003 11.7376C15.8004 17.3748 15.8022 17.4782 15.8999 17.6383C15.9545 17.7279 16.0725 17.8459 16.1622 17.9006C16.3217 17.9979 16.4233 18 21.0503 18C25.6773 18 25.7789 17.9979 25.9384 17.9006C26.0281 17.8459 26.1461 17.7279 26.2008 17.6383C26.2989 17.4774 26.3002 17.369 26.3002 9C26.3002 0.630975 26.2989 0.52262 26.2008 0.361714C26.1461 0.27206 26.0281 0.154056 25.9384 0.0994038C25.7789 0.00210003 25.6773 0 21.0503 0C16.4233 0 16.3217 0.00210003 16.1622 0.0994038C16.0725 0.154056 15.9545 0.27206 15.8999 0.361714C15.8051 0.51707 15.8004 0.617174 15.8003 2.51225L15.8001 4.49982L14.5375 4.50002C13.3659 4.50017 13.2632 4.50737 13.112 4.59958C13.0224 4.65423 12.9044 4.77223 12.8497 4.86189C12.7531 5.02039 12.7503 5.12055 12.7502 8.51248L12.75 12.0001H11.9749H11.1999L11.1997 6.26239C11.1996 0.625224 11.1978 0.52182 11.1002 0.361714C11.0455 0.27206 10.9275 0.154056 10.8379 0.0994038C10.6783 0.00210003 10.5767 0 5.94971 0C1.32273 0 1.22113 0.00210003 1.06157 0.0994038ZM9.69986 6.74991V12.0001H8.94983H8.1998L8.1996 11.5126C8.1994 10.9604 8.12615 10.7756 7.83774 10.5998C7.68343 10.5057 7.58303 10.5004 5.94971 10.5004C4.3164 10.5004 4.216 10.5057 4.06169 10.5998C3.97204 10.6545 3.85403 10.7725 3.79938 10.8621C3.70528 11.0164 3.69998 11.1168 3.69998 12.7501C3.69998 14.3835 3.70528 14.4839 3.79938 14.6382C3.85403 14.7278 3.97204 14.8458 4.06169 14.9005C4.216 14.9946 4.3164 14.9999 5.94971 14.9999C7.58303 14.9999 7.68343 14.9946 7.83774 14.9005C8.12615 14.7247 8.1994 14.5399 8.1996 13.9877L8.1998 13.5002H8.94983H9.69986V15.0002V16.5003H5.94971H2.19957V9V1.49971H5.94971H9.69986V6.74991ZM24.8004 9V16.5003H21.0503H17.3002V11.2501V5.99988H18.0502H18.8002L18.8004 6.4874C18.8006 7.03957 18.8739 7.22438 19.1623 7.40019C19.3166 7.49429 19.417 7.49959 21.0503 7.49959C22.6836 7.49959 22.784 7.49429 22.9383 7.40019C23.028 7.34554 23.146 7.22753 23.2006 7.13788C23.2947 6.98357 23.3 6.88317 23.3 5.24985C23.3 3.61654 23.2947 3.51614 23.2006 3.36183C23.146 3.27218 23.028 3.15417 22.9383 3.09952C22.784 3.00542 22.6836 3.00012 21.0503 3.00012C19.417 3.00012 19.3166 3.00542 19.1623 3.09952C18.8739 3.27533 18.8006 3.46013 18.8004 4.01231L18.8002 4.49982H18.0502H17.3002V2.99977V1.49971H21.0503H24.8004V9ZM4.06169 4.59958C3.83378 4.73848 3.69998 4.97904 3.69998 5.24985C3.69998 5.52066 3.83378 5.76122 4.06169 5.90013C4.216 5.99423 4.3164 5.99953 5.94971 5.99953C7.58303 5.99953 7.68343 5.99423 7.83774 5.90013C8.32071 5.60567 8.32071 4.89404 7.83774 4.59958C7.68343 4.50547 7.58303 4.50017 5.94971 4.50017C4.3164 4.50017 4.216 4.50547 4.06169 4.59958ZM21.8003 5.24985V5.99988H21.0503H20.3003V5.24985V4.49982H21.0503H21.8003V5.24985ZM4.06169 7.59969C3.83378 7.7386 3.69998 7.97916 3.69998 8.24997C3.69998 8.52078 3.83378 8.76134 4.06169 8.90025C4.216 8.99435 4.3164 8.99965 5.94971 8.99965C7.58303 8.99965 7.68343 8.99435 7.83774 8.90025C8.32071 8.60578 8.32071 7.89416 7.83774 7.59969C7.68343 7.50559 7.58303 7.50029 5.94971 7.50029C4.3164 7.50029 4.216 7.50559 4.06169 7.59969ZM19.1623 9.09975C18.6793 9.39421 18.6793 10.1058 19.1623 10.4003C19.3166 10.4944 19.417 10.4997 21.0503 10.4997C22.6836 10.4997 22.784 10.4944 22.9383 10.4003C23.4213 10.1058 23.4213 9.39421 22.9383 9.09975C22.784 9.00565 22.6836 9.00035 21.0503 9.00035C19.417 9.00035 19.3166 9.00565 19.1623 9.09975ZM6.69974 12.7501V13.5002H5.94971H5.19968V12.7501V12.0001H5.94971H6.69974V12.7501ZM19.1623 12.0999C18.6793 12.3943 18.6793 13.106 19.1623 13.4004C19.3166 13.4945 19.417 13.4998 21.0503 13.4998C22.6836 13.4998 22.784 13.4945 22.9383 13.4004C23.4213 13.106 23.4213 12.3943 22.9383 12.0999C22.784 12.0058 22.6836 12.0005 21.0503 12.0005C19.417 12.0005 19.3166 12.0058 19.1623 12.0999Z" fill="#C9FF84"/>
</svg>
