<svg width="18" height="18" viewBox="0 0 18 18" fill="none" xmlns="http://www.w3.org/2000/svg">
<path fill-rule="evenodd" clip-rule="evenodd" d="M0 8.65098V17.302L0.13887 17.5081C0.2153 17.6214 0.374757 17.7711 0.493287 17.8408C0.707416 17.9665 0.762829 17.9675 8.89124 17.9837L17.0736 18V9.43544C17.0736 3.53412 17.0532 0.817008 17.0081 0.697431C16.9189 0.461297 16.6529 0.187502 16.413 0.0848751C16.2479 0.0142383 14.8544 0 8.10733 0H0V8.65098ZM15.7748 1.51845C15.9011 1.67895 15.9025 1.72721 15.9025 5.70297C15.9025 9.57123 15.898 9.73068 15.7847 9.8706L15.6669 10.0161L8.65011 10.0325C3.65 10.0441 1.58618 10.0293 1.4692 9.98093C1.37884 9.94364 1.27424 9.83892 1.2367 9.74831C1.18856 9.63213 1.1734 8.40517 1.18517 5.58758L1.20194 1.59167L1.34746 1.47382C1.4888 1.35936 1.6943 1.35603 8.56998 1.35603H15.647L15.7748 1.51845ZM2.8076 2.15294C2.87152 2.21538 8.49577 5.23921 8.54804 5.23921C8.59347 5.23921 14.2566 2.20934 14.3277 2.14703C14.3599 2.1188 11.7679 2.09568 8.56764 2.09568C4.98631 2.09568 2.77154 2.11769 2.8076 2.15294ZM1.97241 5.66765C1.97241 7.36435 1.98523 8.75256 2.00088 8.75256C2.10468 8.75256 7.69565 5.69871 7.65867 5.66229C7.63315 5.63714 6.51665 5.02982 5.17757 4.31267C3.83849 3.59551 2.56955 2.91294 2.35764 2.79576L1.97241 2.58274V5.66765ZM12.2553 4.12554C10.707 4.95875 9.42632 5.65434 9.40937 5.67135C9.38157 5.69915 14.7958 8.6278 15.055 8.72519C15.1568 8.76347 15.1629 8.59464 15.1629 5.71172C15.1629 4.03203 15.1421 2.64709 15.1166 2.63415C15.0912 2.62121 13.8036 3.29232 12.2553 4.12554ZM5.65526 7.66551L2.7737 9.21484L5.67535 9.23086C7.27122 9.23968 9.87073 9.23968 11.452 9.23086L14.3269 9.21484L11.8017 7.86325C10.4128 7.1199 9.11005 6.42265 8.90665 6.31392L8.53682 6.11619L5.65526 7.66551ZM15.7793 10.9715C15.9274 11.1196 15.9357 11.2665 15.8066 11.4509L15.7107 11.5879H8.6C4.68915 11.5879 1.44337 11.5703 1.38716 11.5487C1.15793 11.4607 1.1538 11.0469 1.38068 10.8954C1.41798 10.8705 4.64514 10.8497 8.55223 10.8492C15.5744 10.8482 15.6574 10.8497 15.7793 10.9715ZM4.48445 12.5279C4.63479 12.7158 4.63189 12.8788 4.47539 13.0353L4.32025 13.1905H2.89697H1.4737L1.31855 13.0353C1.20446 12.9212 1.17463 12.8439 1.20563 12.7425C1.2955 12.4495 1.28761 12.4508 2.89697 12.4508C4.04368 12.4508 4.43816 12.47 4.48445 12.5279ZM5.30084 14.115C5.41469 14.2289 5.42406 14.3198 5.42319 15.3016C5.42264 15.8864 5.40187 16.3953 5.37697 16.4326C5.25123 16.6209 5.0374 16.6422 3.26803 16.6422H1.4737L1.32244 16.4909C1.17395 16.3424 1.17112 16.3206 1.17112 15.317C1.17112 14.3134 1.17395 14.2915 1.32244 14.1431L1.4737 13.9918H3.32566C5.09541 13.9918 5.18305 13.9972 5.30084 14.115ZM10.54 14.115C10.6539 14.2289 10.6633 14.3205 10.6633 15.3125V16.3867L10.5009 16.5144C10.345 16.6371 10.2663 16.6422 8.52573 16.6422H6.7129L6.56164 16.4909C6.41316 16.3424 6.41032 16.3206 6.41032 15.317C6.41032 14.3134 6.41316 14.2915 6.56164 14.1431L6.7129 13.9918H8.56487C10.3346 13.9918 10.4223 13.9972 10.54 14.115ZM15.7793 14.115C15.8931 14.2289 15.9025 14.3205 15.9025 15.3125V16.3867L15.7401 16.5144C15.5842 16.6371 15.5055 16.6422 13.7649 16.6422H11.9521L11.8008 16.4909C11.6524 16.3424 11.6495 16.3206 11.6495 15.317C11.6495 14.3134 11.6524 14.2915 11.8008 14.1431L11.9521 13.9918H13.8041C15.5738 13.9918 15.6615 13.9972 15.7793 14.115ZM1.97241 15.2849V15.8409H3.33084H4.68927L4.67146 15.3016L4.65365 14.7622L3.31303 14.7456L1.97241 14.729V15.2849ZM7.21161 15.2849V15.8409H8.57005H9.92848L9.91067 15.3016L9.89285 14.7622L8.55223 14.7456L7.21161 14.729V15.2849ZM12.4508 15.2849V15.8409H13.8093H15.1677L15.1499 15.3016L15.1321 14.7622L13.7914 14.7456L12.4508 14.729V15.2849Z" fill="black"/>
</svg>
