<svg width="19" height="18" viewBox="0 0 19 18" fill="none" xmlns="http://www.w3.org/2000/svg">
<path fill-rule="evenodd" clip-rule="evenodd" d="M16.5858 0.0378431C16.5858 0.0604146 16.6175 0.168673 16.6562 0.278387C16.8369 0.79068 16.7102 1.1034 16.0488 1.77688C15.4193 2.41794 15.3422 2.56421 15.3422 3.11742C15.3422 3.47707 15.3608 3.57946 15.4675 3.80705C15.6274 4.14806 15.954 4.47472 16.295 4.63455C16.5259 4.74281 16.623 4.75984 17.0081 4.75979C17.4077 4.75975 17.482 4.74553 17.7251 4.62249C18.4576 4.25163 18.8339 3.42244 18.6315 2.6246C18.4218 1.79781 17.7178 0.784204 16.9549 0.210719C16.6735 -0.000824204 16.5858 -0.0418846 16.5858 0.0378431ZM8.20945 0.331226C7.12939 0.433947 6.11391 0.732586 5.08932 1.24877C4.25056 1.67139 3.67234 2.07923 3.01542 2.71156C2.1676 3.52765 1.6715 4.20334 1.16695 5.2291C0.152967 7.29057 -0.0031571 9.61135 0.723355 11.8238C1.64869 14.6417 4.01509 16.8411 6.90485 17.569C8.23718 17.9045 10.0027 17.9043 11.1767 17.5684C11.5346 17.466 11.6241 17.352 11.6015 17.0271C11.5758 16.6575 11.3891 16.3089 10.9708 15.8496C10.0684 14.8587 9.55895 14.0593 9.45097 13.4649C9.30015 12.6345 9.94806 11.8871 10.8664 11.8322C11.477 11.7958 11.6635 11.9045 12.1739 12.595C12.7331 13.3514 13.4278 13.9643 13.8771 14.0977C14.0084 14.1366 14.2731 14.1685 14.4655 14.1685H14.8153L14.7872 13.9636C14.7094 13.3959 14.6533 11.9273 14.6687 10.8604C14.6781 10.2022 14.6826 9.66363 14.6786 9.66363C14.6745 9.66363 14.5613 9.73759 14.427 9.82797C14.0743 10.0653 13.7474 10.1478 13.2527 10.1241C12.7137 10.0984 12.343 9.92454 11.9718 9.52365C11.6069 9.12952 11.4981 8.83416 11.4959 8.23238C11.4944 7.80019 11.5061 7.73811 11.6441 7.44679C11.8381 7.0374 12.1764 6.69911 12.5857 6.50517C12.8762 6.36758 12.9406 6.35533 13.3738 6.35533C13.8246 6.35533 13.8613 6.36312 14.203 6.53206C14.4449 6.65158 14.629 6.78485 14.7719 6.94379L14.9832 7.17879L15.0376 6.90784C15.1472 6.36279 15.3294 5.6902 15.4556 5.36514L15.5849 5.03187L15.3107 4.75961C14.9992 4.45031 14.7453 3.98865 14.6594 3.57556C14.6067 3.32202 14.6212 2.77153 14.688 2.48345C14.7123 2.37885 14.669 2.33089 14.3015 2.05515C12.5413 0.734838 10.3842 0.124422 8.20945 0.331226ZM10.4672 2.85656C10.7679 2.98913 11.0642 3.28434 11.1955 3.58204C11.3537 3.94098 11.3444 4.44196 11.1734 4.77317C10.8887 5.32417 10.4024 5.60723 9.80494 5.56965C9.05135 5.5222 8.52671 4.99752 8.47904 4.24365C8.41099 3.16674 9.47979 2.42108 10.4672 2.85656ZM5.41673 5.23328C5.60809 5.29011 5.73094 5.37105 5.9332 5.57349C6.24727 5.8879 6.35586 6.15529 6.35586 6.61427C6.35586 7.16368 6.02677 7.66471 5.51358 7.89662C5.17984 8.0474 4.67238 8.03407 4.32771 7.86546C3.62978 7.52398 3.32152 6.6626 3.65408 5.98292C3.80336 5.67781 4.16657 5.33483 4.44479 5.23633C4.70856 5.14295 5.10828 5.14168 5.41673 5.23328ZM17.6679 5.37687C17.3349 5.47692 16.9155 5.50202 16.6092 5.44022C16.1534 5.34825 16.1639 5.3451 16.0611 5.60451C15.8337 6.17804 15.6138 7.22173 15.453 8.49047C15.3329 9.43763 15.2813 12.0739 15.362 13.1362C15.5675 15.8396 16.1221 17.6803 16.8182 17.9686C17.2722 18.1567 17.7865 17.4879 18.1309 16.2613C18.9343 13.4001 18.9239 8.49657 18.1089 5.87673C18.019 5.58767 17.9298 5.3429 17.9108 5.33272C17.8918 5.32258 17.7825 5.34243 17.6679 5.37687ZM5.39387 10.7085C5.90251 10.9691 6.1866 11.4275 6.18575 11.9865C6.1851 12.4272 6.04812 12.7365 5.72114 13.0353C5.01011 13.6851 3.89763 13.467 3.48604 12.5969C3.27107 12.1425 3.30556 11.6404 3.58168 11.205C3.95779 10.6119 4.77065 10.3892 5.39387 10.7085Z" fill="url(#paint0_linear_2683_2014)"/>
<defs>
<linearGradient id="paint0_linear_2683_2014" x1="9.5" y1="0" x2="9.5" y2="18" gradientUnits="userSpaceOnUse">
<stop stop-color="#E336FF"/>
<stop offset="1" stop-color="#31C1FF"/>
</linearGradient>
</defs>
</svg>
