<svg width="50" height="42" viewBox="0 0 50 42" fill="none" xmlns="http://www.w3.org/2000/svg">
<path fill-rule="evenodd" clip-rule="evenodd" d="M30.4591 0.441198C29.7769 1.25392 27.9936 3.16031 27.065 4.06941C23.295 7.76036 20.0373 10.1717 15.924 12.3163L14.7409 12.9331L14.8734 13.3408C15.0837 13.988 17.8236 22.7353 18.1006 23.644C18.4952 24.9384 19.2967 27.464 19.3216 27.4909C19.3339 27.5042 19.8188 27.4479 20.399 27.3656C22.6608 27.045 23.9456 26.9634 26.5775 26.9735C30.3857 26.988 34.602 27.537 38.9458 28.5837C39.4471 28.7046 39.8725 28.7882 39.8911 28.7696C39.9096 28.751 39.5743 27.6303 39.1459 26.2792C38.2143 23.3409 36.416 17.6083 36.2684 17.1065C36.2106 16.91 35.5648 14.8523 34.8333 12.5338C34.1018 10.2153 33.4233 8.06116 33.3256 7.74679C33.2279 7.43242 32.9462 6.53217 32.6996 5.74624C31.4067 1.6251 30.9538 0.15469 30.9538 0.0786689C30.9538 -0.0897348 30.8262 0.00379098 30.4591 0.441198ZM40.188 1.62817L39.4243 3.11651L40.0529 3.49004C41.385 4.28183 42.7184 5.43136 43.6106 6.55732C45.433 8.85717 46.3761 11.234 46.6184 14.1373C46.7964 16.2702 46.3443 18.7424 45.4102 20.7438L45.1367 21.3299L46.5781 22.094C47.3709 22.5143 48.0537 22.8581 48.0955 22.8581C48.1925 22.8581 48.3794 22.4884 48.7843 21.4957C49.3108 20.2052 49.7246 18.6582 49.9106 17.2851C50.0526 16.2368 50.0192 13.3456 49.8548 12.4624C49.2696 9.31751 48.1529 6.78016 46.3645 4.53161C45.6836 3.67545 44.3342 2.36494 43.4291 1.68075C42.6228 1.07137 41.1585 0.136042 41.0146 0.138685C40.98 0.139328 40.608 0.809585 40.188 1.62817ZM37.5816 6.66263C37.1893 7.42206 36.8584 8.07795 36.8463 8.12011C36.8343 8.16233 37.0646 8.3556 37.3581 8.54972C38.6425 9.39896 39.4639 10.3146 40.0985 11.605C40.5718 12.567 40.821 13.4181 40.912 14.3832C41.0302 15.6349 40.7907 17.1027 40.284 18.2325L40.0675 18.7155L40.7586 19.0641C41.1387 19.2558 41.7985 19.5939 42.2247 19.8155C42.6509 20.0371 43.0073 20.2094 43.0168 20.1986C43.1203 20.0796 43.5092 19.1786 43.6885 18.6427C44.0749 17.4869 44.1976 16.7865 44.2396 15.4964C44.2824 14.1791 44.21 13.4402 43.9329 12.3681C43.1908 9.49684 41.3896 7.09039 38.8192 5.53632C38.5877 5.39635 38.3751 5.28182 38.3467 5.28182C38.3182 5.28182 37.974 5.90321 37.5816 6.66263ZM11.5628 13.8911C11.2889 13.9831 9.72315 14.4831 8.08342 15.0022C4.82667 16.0333 4.46191 16.1662 3.76234 16.5759C1.42113 17.9474 -0.00184834 20.4412 1.80196e-06 23.1696C0.000642237 24.1739 0.0857484 24.7033 0.397142 25.6404C1.05501 27.6202 2.39985 29.1495 4.30458 30.0837C5.66571 30.7514 7.23428 30.993 8.72066 30.7641C9.18967 30.6918 10.2202 30.4038 11.7094 29.9288C12.9595 29.5301 14.6227 29.0002 15.4054 28.7512C16.1882 28.5022 16.8251 28.2721 16.8207 28.2397C16.7989 28.0768 15.3739 23.4934 13.5872 17.8389C12.5838 14.6633 12.2578 13.714 12.1722 13.7184C12.111 13.7214 11.8368 13.7992 11.5628 13.8911ZM17.4335 30.5677C17.3748 30.6008 16.6543 30.8386 15.8324 31.0961C11.3032 32.5149 9.9594 32.966 9.99377 33.056C10.0132 33.1068 10.8252 34.2653 11.7982 35.6304C12.7711 36.9954 14.0328 38.7727 14.6021 39.5797C15.1713 40.3868 15.7536 41.1364 15.896 41.2454C16.3011 41.5556 16.7852 41.7391 17.29 41.7738C17.7099 41.8026 17.8981 41.7601 19.2836 41.3241C20.1251 41.0594 21.408 40.6598 22.1345 40.4362C22.861 40.2125 23.5531 39.9716 23.6725 39.9008C23.792 39.8299 23.9764 39.6397 24.0823 39.478C24.2521 39.2188 24.272 39.1282 24.2503 38.7118C24.216 38.0545 24.0085 37.7921 23.2414 37.436C22.5234 37.1027 21.8626 36.6069 21.4297 36.0769C21.2474 35.8536 20.3137 34.509 19.3548 33.0888C18.3959 31.6687 17.5954 30.5069 17.5758 30.5071C17.5562 30.5073 17.4922 30.5345 17.4335 30.5677Z" fill="#FF8A00"/>
</svg>
