<svg width="50" height="50" viewBox="0 0 50 50" fill="none" xmlns="http://www.w3.org/2000/svg">
<path fill-rule="evenodd" clip-rule="evenodd" d="M0 2.45633V4.91266H0.982533H1.96507V25V45.0873H0.982533H0V47.5437V50H2.45633H4.91266V49.0175V48.0349H25H45.0873V49.0175V50H47.5437H50V47.5437V45.0873H49.0175H48.0349V25V4.91266H49.0175H50V2.45633V0H47.5437H45.0873V0.982533V1.96507H25H4.91266V0.982533V0H2.45633H0V2.45633ZM3.71179 2.45633V3.71179H2.45633H1.20087V2.45633V1.20087H2.45633H3.71179V2.45633ZM48.7991 2.45633V3.71179H47.5437H46.2882V2.45633V1.20087H47.5437H48.7991V2.45633ZM45.0873 4.0393V4.91266H45.9607H46.8341V25V45.0873H45.9607H45.0873V45.9607V46.8341H25H4.91266V45.9607V45.0873H4.0393H3.16594V25V4.91266H4.0393H4.91266V4.0393V3.16594H25H45.0873V4.0393ZM27.5655 18.0564C27.1828 18.2248 26.2009 19.2421 26.2009 19.4704C26.2009 19.5565 26.0854 19.656 25.9443 19.6914C25.4415 19.8176 22.1007 21.4766 21.7474 21.7755C21.5497 21.9429 21.2977 22.2579 21.1877 22.4755C20.9449 22.9552 18.6681 31.5369 18.6681 31.9722C18.6681 32.332 18.9645 32.6419 19.3088 32.6419C19.4416 32.6419 21.5993 32.0987 24.1037 31.4347C27.2767 30.5934 28.7831 30.1451 29.0724 29.9555C29.5779 29.6243 29.8285 29.2282 30.9498 26.9873C31.6413 25.6055 31.8862 25.2136 32.1262 25.1064C32.5774 24.905 33.3884 23.9501 33.4678 23.5267C33.6177 22.7281 33.4972 22.5504 31.2928 20.3209C30.1434 19.1584 29.045 18.1391 28.8517 18.0556C28.4174 17.868 27.9934 17.8683 27.5655 18.0564ZM30.1571 21.2597C31.1635 22.2647 31.9869 23.1336 31.9869 23.1905C31.9869 23.3353 31.5365 23.7991 31.3959 23.7991C31.3319 23.7991 30.4326 22.9533 29.3976 21.9194L27.5156 20.0397L27.8067 19.736C27.9667 19.569 28.1493 19.4323 28.2124 19.4323C28.2757 19.4323 29.1508 20.2547 30.1571 21.2597ZM28.4243 23.0204L30.3727 24.971L29.4296 26.7763C28.9108 27.7693 28.4223 28.6349 28.3439 28.7C28.2001 28.8193 22.0475 30.49 21.9843 30.4269C21.9656 30.4082 22.4588 29.8861 23.0803 29.2667L24.2104 28.1406L24.6179 28.2751C25.2314 28.4776 26.0276 28.3607 26.5633 27.9895C27.0996 27.618 27.6204 26.6858 27.6194 26.0995C27.6174 24.7543 26.5985 23.6984 25.2967 23.6924C23.679 23.6849 22.5284 25.2467 23.0498 26.7422L23.1737 27.0979L21.9643 28.3074L20.7549 29.5168L21.1718 27.9407C21.4012 27.0739 21.7761 25.6564 22.0051 24.7909C22.2611 23.8234 22.5081 23.1207 22.6463 22.9669C22.8245 22.7687 26.1986 21.0733 26.4203 21.0705C26.451 21.0702 27.3528 21.9476 28.4243 23.0204ZM25.8086 25.3548C26.1933 25.6986 26.2513 26.0723 25.9866 26.5011C25.4631 27.3486 24.1326 26.6241 24.4645 25.6722C24.6611 25.1083 25.3505 24.9455 25.8086 25.3548ZM3.71179 47.5437V48.7991H2.45633H1.20087V47.5437V46.2882H2.45633H3.71179V47.5437ZM48.7991 47.5437V48.7991H47.5437H46.2882V47.5437V46.2882H47.5437H48.7991V47.5437Z" fill="#00FFA3"/>
</svg>
