<svg width="50" height="45" viewBox="0 0 50 45" fill="none" xmlns="http://www.w3.org/2000/svg">
<path fill-rule="evenodd" clip-rule="evenodd" d="M1.44099 0.430916C-0.0544945 1.24241 0.000254833 0.422915 0.000254833 22.0394C0.000254833 39.226 0.0500043 41.9099 0.3795 42.5474C1.18824 44.1112 -0.000743857 44.0392 25 44.0392C50.0007 44.0392 48.8117 44.1112 49.6204 42.5474C49.9499 41.9099 49.9997 39.226 49.9997 22.0394C49.9997 0.336918 50.0607 1.22191 48.5079 0.418916C47.4127 -0.147328 2.48548 -0.135828 1.44099 0.430916ZM35.2691 2.77039C35.6711 3.17238 35.9998 3.74338 35.9998 4.03962C35.9998 4.33587 35.6711 4.90686 35.2691 5.30886C34.8671 5.71085 34.2961 6.0396 33.9999 6.0396C33.3039 6.0396 31.9999 4.73562 31.9999 4.03962C31.9999 3.34363 33.3039 2.03965 33.9999 2.03965C34.2961 2.03965 34.8671 2.36839 35.2691 2.77039ZM40.769 2.77039C41.171 3.17238 41.4998 3.74338 41.4998 4.03962C41.4998 4.33587 41.171 4.90686 40.769 5.30886C40.367 5.71085 39.796 6.0396 39.4998 6.0396C38.8038 6.0396 37.4998 4.73562 37.4998 4.03962C37.4998 3.34363 38.8038 2.03965 39.4998 2.03965C39.796 2.03965 40.367 2.36839 40.769 2.77039ZM46.269 2.77039C46.671 3.17238 46.9997 3.74338 46.9997 4.03962C46.9997 4.33587 46.671 4.90686 46.269 5.30886C45.867 5.71085 45.296 6.0396 44.9997 6.0396C44.3037 6.0396 42.9998 4.73562 42.9998 4.03962C42.9998 3.34363 44.3037 2.03965 44.9997 2.03965C45.296 2.03965 45.867 2.36839 46.269 2.77039ZM46.9997 24.5394V41.0392H25H3.00022V24.5394V8.03958H25H46.9997V24.5394ZM25.742 15.852C25.6062 16.1612 24.7117 19.6619 23.7542 23.6311C21.9243 31.2193 21.876 31.7938 23.0712 31.7856C23.3757 31.7833 23.7775 31.6851 23.9637 31.5671C24.229 31.3991 26.0297 24.5144 27.8732 16.62C28.1509 15.4315 26.231 14.7395 25.742 15.852ZM15.3751 19.8902L10.1251 22.1972L10.0514 23.5731C9.98239 24.8666 10.0196 24.9684 10.6764 25.2716C13.0236 26.3561 20.5348 29.5393 20.746 29.5393C20.8893 29.5393 21 28.8956 21 28.0628V26.5864L17.3856 25.1471C15.3976 24.3556 13.8158 23.6351 13.8708 23.5461C13.9258 23.4571 15.5523 22.7857 17.4856 22.0537L21 20.7232V19.1312C21 18.2557 20.9155 17.5492 20.8125 17.5615C20.7095 17.5735 18.2625 18.6215 15.3751 19.8902ZM28.9999 19.1369V20.7187L32.7744 22.1739L36.5486 23.6291L32.7744 25.1026L28.9999 26.5761V28.0578C28.9999 28.9828 29.1049 29.5393 29.2794 29.5393C29.5287 29.5393 37.1103 26.3201 39.1983 25.3276C39.9968 24.9481 40.0195 24.8954 39.9483 23.5821L39.8748 22.2282L34.8749 20.0579C32.1249 18.8642 29.6782 17.8127 29.4374 17.7215C29.0494 17.574 28.9999 17.7337 28.9999 19.1369Z" fill="#BD00FF"/>
</svg>
